<svg xmlns="http://www.w3.org/2000/svg" viewBox="0 0 64 64">
  <circle cx="32" cy="32" r="32" fill="#fff"/>
  <path fill="#4da2ff" fill-rule="evenodd" transform="translate(14,9) scale(.12)" d="M240.1 159.9c15.6 19.6 25 44.5 25 71.5s-9.6 52.6-25.7 72.4l-1.4 1.7-.4-2.2c-.3-1.8-.7-3.7-1.1-5.6-8-35.3-34.2-65.6-77.4-90.2-29.1-16.5-45.8-36.4-50.2-59-2.8-14.6-.7-29.3 3.3-41.9 4.1-12.6 10.1-23.1 15.2-29.4l16.8-20.5c2.9-3.6 8.5-3.6 11.4 0zM266.6 139.4 154.2 2c-2.1-2.6-6.2-2.6-8.3 0L33.4 139.4l-.4.5C12.4 165.6 0 198.2 0 233.7c0 82.7 67.2 149.8 150 149.8 82.8 0 150-67.1 150-149.8 0-35.5-12.4-68.1-33.1-93.8zM60.3 159.5l10-12.3.3 2.3c.2 1.8.5 3.6.9 5.4 6.5 34.1 29.8 62.6 68.6 84.6 33.8 19.2 53.4 41.3 59.1 65.6 2.4 10.1 2.8 20.1 1.8 28.8l-.1.5-.5.2c-15.2 7.4-32.4 11.6-50.5 11.6C86.4 346.2 35 294.8 35 231.4c0-27.2 9.5-52.3 25.3-71.9z"/>
</svg>
