<svg xmlns="http://www.w3.org/2000/svg" viewBox="0 0 64 64">
  <circle cx="32" cy="32" r="32" fill="#f7931a"/>
  <path d="M48.31 84.38c-.4.97-1.38 2.43-3.62 1.87.08.12-5.74-1.43-5.74-1.43l-3.93 9.04 10.28 2.56q2.88.73 5.64 1.46L47.67 111l7.9 1.97 3.23-12.99a314 314 0 0 0 6.3 1.64l-3.23 12.92 7.9 1.97 3.27-13.1c13.47 2.55 23.6 1.52 27.87-10.66 3.43-9.81-.17-15.47-7.26-19.16 5.16-1.2 9.05-4.59 10.09-11.6 1.43-9.58-5.87-14.73-15.84-18.17l3.23-12.97-7.9-1.97-3.15 12.63a323 323 0 0 0-6.33-1.49l3.17-12.72-7.9-1.97-3.23 12.98-15.93-3.95-2.1 8.44s5.86 1.34 5.73 1.43c3.2.8 3.78 2.91 3.68 4.6zM85.7 87.3c-2.45 9.81-18.96 4.5-24.32 3.18l4.34-17.4c5.35 1.34 22.53 3.99 19.98 14.22m2.44-25.45c-2.23 8.92-15.98 4.39-20.44 3.28l3.93-15.77c4.46 1.1 18.83 3.18 16.5 12.49" fill="#fff" transform="translate(.22)scale(.44138)"/>
</svg>
