<svg xmlns="http://www.w3.org/2000/svg" viewBox="0 0 64 64">
  <circle cx="32" cy="32" r="32" fill="#0033ad"/>
  <path fill="#fff" transform="scale(2)" d="M15.73 6.06c.47-.25 1.06.32.8.8-.14.38-.7.48-1 .19s-.2-.84.2-1zm-5.16.55c.3-.12.66.14.63.45.03.34-.39.6-.69.43-.39-.15-.34-.78.06-.88m10.56.89c-.46-.06-.53-.76-.1-.9.35-.16.66.14.71.46-.07.27-.3.52-.61.44m-9.39 1.26c.49-.3 1.18.15 1.1.7-.02.57-.77.9-1.2.52-.42-.3-.35-.99.1-1.22m7.43.33c.22-.55 1.1-.57 1.35-.04.24.42-.06.94-.5 1.08-.57.1-1.12-.5-.85-1.04m-4.07 1c0-.47.44-.82.9-.85.3.06.63.19.76.49.24.41.03.98-.41 1.18-.2.1-.44.06-.66.05-.33-.16-.61-.48-.59-.86m-7.66.69c.44-.27 1.04.22.87.7-.09.4-.65.57-.97.31-.34-.25-.29-.84.1-1.01m16.46 0c.38-.3 1 .04.95.5.03.43-.5.76-.88.54-.41-.19-.46-.8-.07-1.04m-6.64.85a1.5 1.5 0 0 1 1.72.59c.46.66.22 1.68-.51 2.06-.75.46-1.85.07-2.13-.75-.32-.74.14-1.67.92-1.9m-3.65.07c.69-.32 1.62-.05 1.95.64.4.68.09 1.62-.61 1.97-.7.4-1.7.1-2.03-.63-.39-.7-.05-1.66.69-1.98m-3.66 1.23c.05-.44.47-.72.9-.75a1 1 0 0 1 .86.85c-.03.45-.38.9-.86.9-.54.04-1-.49-.9-1m10.8-.66c.55-.3 1.3.15 1.28.76.04.66-.8 1.12-1.34.74-.57-.32-.53-1.22.06-1.5m-8.63 2.31a1.5 1.5 0 0 1 1.68.7c.35.58.2 1.4-.33 1.82-.68.63-1.94.37-2.3-.48-.42-.78.08-1.83.95-2.04m6.93 0a1.5 1.5 0 0 1 1.68.61c.45.64.23 1.6-.42 2-.7.48-1.76.23-2.14-.52-.46-.77 0-1.86.88-2.1M8 15.32c.55-.2 1.16.4.94.94-.14.49-.84.67-1.2.3-.43-.33-.27-1.09.26-1.24m14.97.79a.84.84 0 0 1 .79-.88c.37.06.74.36.71.77.04.53-.62.9-1.08.64-.22-.1-.33-.32-.42-.53m-17.69-.52c.34-.14.75.14.67.5-.02.41-.63.57-.86.23-.2-.24-.08-.6.2-.73zm20.95 0c.24-.17.61-.06.7.21.16.3-.13.7-.46.65-.47.04-.63-.66-.24-.87m-12.31 1.97c.87-.22 1.81.5 1.82 1.38.05.9-.87 1.7-1.77 1.49a1.5 1.5 0 0 1-1.21-1.46c0-.65.5-1.27 1.16-1.4m3.46 0c.89-.25 1.85.48 1.84 1.38.05.88-.85 1.65-1.73 1.47-.82-.1-1.43-.99-1.2-1.78a1.5 1.5 0 0 1 1.09-1.08zm-6.68.54c.62-.1 1.2.57.94 1.14-.18.61-1.08.78-1.48.28-.47-.48-.12-1.36.54-1.42m10.16.02c.54-.22 1.22.24 1.17.83.03.64-.8 1.09-1.34.71-.6-.34-.5-1.33.17-1.54m2.83 2.8c-.21-.39.18-.9.62-.84.22 0 .38.17.52.31.03.24.08.52-.12.7-.27.33-.87.23-1.02-.17m-16.26-.73c.41-.27 1 .14.91.61-.05.43-.59.67-.94.43-.38-.22-.37-.84.03-1.04m8.19.89c.54-.24 1.23.23 1.18.81.04.65-.81 1.1-1.34.71-.6-.33-.5-1.32.16-1.52m-3.8.87c.47-.24 1.09.17 1.05.68 0 .42-.4.77-.82.71-.35 0-.58-.31-.69-.6 0-.32.14-.67.47-.8zm7.7 0c.47-.29 1.14.13 1.1.67.01.57-.75.94-1.2.56-.42-.29-.37-1 .1-1.23m1.33 3.25c-.21-.3.04-.69.38-.76.28.05.57.26.5.57-.03.43-.66.56-.88.2zm-10.61-.27c.08-.25.29-.5.58-.43.44.03.57.68.19.88-.34.22-.74-.09-.77-.45m5.12.29c.08-.37.57-.55.89-.35.2.09.27.32.32.52l-.08.3c-.13.16-.3.31-.51.3-.41.05-.78-.4-.62-.77"/>
</svg>
