<svg xmlns="http://www.w3.org/2000/svg" fill="none" viewBox="0 0 64 64">
  <g fill="#0f0e0b">
    <path d="M3.27 18.24a32 32 0 0 0-2.74 9.09h26.7l5.84-9.09z"/>
    <path d="M63.47 27.33q-.71-4.83-2.74-9.09h-16L38.9 9.16h15.35A31.7 31.7 0 0 0 32 .08 31.7 31.7 0 0 0 9.75 9.16H38.9l-5.83 9.08 5.83 9.09zm-47.9 18.16-5.82 9.09c5.73 5.61 13.57 9.13 22.23 9.13s16.63-3.34 22.39-9.13H21.4zm5.84-9.08H.53c.46 3.2 1.4 6.26 2.74 9.08h12.3zm5.83 9.08h33.49a32 32 0 0 0 2.74-9.08h-30.4l-5.83-9.08-5.83 9.08"/>
  </g>
</svg>
