<svg xmlns="http://www.w3.org/2000/svg" fill="none" viewBox="0 0 64 64">
  <g transform="translate(0 .06)scale(.11449)">
    <circle cx="279.6" cy="279.11" r="212.78" fill="#fff"/>
    <path fill="#ff394a" d="M279.6.47c153.9 0 278.65 124.75 278.65 278.65S433.5 557.77 279.6 557.77.95 433 .95 279.12 125.71.47 279.6.47m107.33 277.47a13 13 0 0 0-22.53 0l-53.43 92.56a13 13 0 0 0 11.26 19.5H429.1a13 13 0 0 0 11.27-19.5zm-96.06-166.38a13 13 0 0 0-22.52 0L118.85 370.5A13 13 0 0 0 130.1 390h89.29a27.9 27.9 0 0 0 24.13-13.93l91.99-159.32a27.9 27.9 0 0 0 0-27.87z"/>
  </g>
</svg>
