<svg xmlns="http://www.w3.org/2000/svg" xml:space="preserve" viewBox="0 0 64 64">
  <path fill="#fcb207" d="M63.07 37.03c-.1 1.42-.55 2.79-.95 4.12a30 30 0 0 1-8.47 13.73 31 31 0 0 1-14.94 7.79c-.75.15-7.34.95-13.53-.05a30 30 0 0 1-8.38-3.2 26 26 0 0 1-5.45-3.85c-1.25-1.21-2.68-2.3-3.7-3.68-.9-1.24-1.86-2.48-2.6-3.85a59 59 0 0 1-3.24-7.73c-2.03-5.56-.82-12.25-.39-15.15.16-1.07.56-2.07.85-3.1.98-3.51 2.85-6.55 5.04-9.4 2.3-3 5.14-5.45 8.37-7.47 3.11-1.95 6.49-3.01 10.03-3.96 3.94-1.06 12.46-.2 13.4.08 1.7.5 3.45.8 5.05 1.58 2.97 1.43 5.82 3 8.3 5.27 1.23 1.12 2.47 2.18 3.54 3.44 3.22 3.8 5.73 8.04 6.66 12.95 1.2 6.28.43 12.12.41 12.48M7.85 31.75c0 13.4 10.69 24.59 24.63 24.36 13-.2 23.46-10.39 23.76-23.6.32-13.94-10.69-24.45-23.74-24.76C18.6 7.4 8 18.73 7.85 31.75"/>
  <path fill="#06236b" d="M31.85 53.34c-11.17.13-21.04-9.35-21.2-21.07-.13-10.92 7.96-19.85 17.6-21.4 7.2-1.16 13.58.68 18.84 5.81 4.4 4.3 6.46 9.63 6.38 15.8-.14 11.5-9.96 21.15-21.62 20.86m.27-2.14a19.3 19.3 0 0 0 19.2-19.29A19.23 19.23 0 0 0 32 12.71a19.3 19.3 0 0 0-19.18 19.21 19.33 19.33 0 0 0 19.3 19.28"/>
  <path fill="#06236b" d="M41.08 30.99c2.59 2.07 3.68 4.68 2.57 7.86-1.18 3.4-3.88 4.64-7.4 4.57v3.03H33.1v-2.9c-.73-.23-1.37-.11-2.12-.12v3.04c-1.08.08-2.07.1-3.15-.01v-3.03h-7.36l1.92-3.86h2.1V24.09c-.41-.18-.87-.1-1.3-.08-.55.03-.94-.14-1.17-.65l-1.48-3.24h7.17c.22-1.13 0-2.17.16-3.23h3.07v3.16c.77.04 1.4.08 2.11-.04v-3.12h3.16v3.19c2.63.38 4.58 1.65 5.64 4.05 1.07 2.4.68 4.7-.77 6.86m-12.7 2.75v5.78c3.15 0 6.28.08 9.4-.03 1.45-.05 2.48-1.45 2.47-2.9a2.8 2.8 0 0 0-2.7-2.82c-3.01-.1-6.04-.03-9.18-.03m.02-3.95c2.54 0 5 .08 7.47-.02a2.9 2.9 0 0 0 2.76-3.1c-.08-1.55-1.3-2.7-3-2.75q-1.41-.03-2.82-.01h-4.42z"/>
</svg>
