<svg xmlns="http://www.w3.org/2000/svg" xml:space="preserve" id="bnb" x="0" y="0" viewBox="0 0 64 64">
  <g transform="scale(.128)">
    <style>
      .st1{fill:#fff}
    </style>
    <path d="M250 0c138.08 0 250 111.92 250 250S388.08 500 250 500 0 388.08 0 250 111.92 0 250 0" style="fill:#f0b90b"/>
    <path d="m137.4 250 .18 66.1 56.17 33.06v38.7l-89.04-52.22V230.67Zm0-66.1v38.52l-32.71-19.36v-38.52l32.71-19.35 32.87 19.35zm79.8-19.36 32.72-19.35 32.87 19.35-32.87 19.35z" class="st1"/>
    <path d="M161.04 302.4v-38.7l32.71 19.35v38.52zm56.17 60.62 32.71 19.35 32.87-19.35v38.52l-32.87 19.35-32.71-19.35zm112.5-198.48 32.71-19.35 32.87 19.35v38.52l-32.87 19.36v-38.53Zm32.71 151.57.18-66.11 32.71-19.35v104.97l-89.04 52.22v-38.7z" class="st1"/>
    <path d="m338.96 302.4-32.71 19.17v-38.52l32.71-19.35z" class="st1"/>
    <path d="m338.96 197.6.18 38.7-56.33 33.05v66.27l-32.71 19.17-32.71-19.17v-66.27l-56.33-33.05v-38.7l32.85-19.35 55.99 33.2 56.33-33.2 32.87 19.35zm-177.92-66.1 88.88-52.4 89.04 52.4-32.71 19.35-56.33-33.21-56.17 33.21Z" class="st1"/>
  </g>
</svg>
