<svg xmlns="http://www.w3.org/2000/svg" viewBox="0 0 64 64">
  <defs>
    <linearGradient id="a" gradientUnits="userSpaceOnUse" x1="90.1166" y1="1.0868" x2="90.1166" y2="70.4884" gradientTransform="matrix(1 0 0 -1 0 139.8898)">
      <stop offset="0" stop-color="#002d74"/>
      <stop offset="1" stop-color="#002d74" stop-opacity="0"/>
    </linearGradient>
    <linearGradient id="b" gradientUnits="userSpaceOnUse" x1="30.0233" y1="139.8898" x2="30.0233" y2="70.4884" gradientTransform="matrix(1 0 0 -1 0 139.8898)">
      <stop offset="0" stop-color="#002d74"/>
      <stop offset="1" stop-color="#002d74" stop-opacity="0"/>
    </linearGradient>
  </defs>
  <circle cx="32" cy="32" r="32" fill="#fff"/>
  <g transform="translate(9.8,6.4) scale(.369)">
    <path fill="#002d74" d="M60.1,0L0,34.7v69.4l60.1,34.7l60-34.7V34.7L60.1,0z M102.3,93.8l-42.3,24.4L17.8,93.8V45l42.3-24.4L102.3,45V93.8z"/>
    <path fill="url(#a)" d="M60.1,138.8l60-34.7V34.7L60.1,0v20.6L102.3,45v48.9l-42.3,24.4V138.8z"/>
    <path fill="url(#b)" d="M60,0L0,34.7v69.4l60,34.7v-20.6L17.8,93.8V44.9L60,20.6V0z"/>
    <path fill="#002d74" d="M88.1,85.6l-28,16.2L32,85.6V53.2L60.1,37l28,16.2L76.4,60l-16.4-9.5L43.7,60v18.9l16.4,9.5l16.4-9.5L88.1,85.6z"/>
  </g>
</svg>
