<svg xmlns="http://www.w3.org/2000/svg" viewBox="0 0 64 64">
  <circle cx="32" cy="32" r="32" fill="#988430"/>
  <circle cx="32" cy="32" r="30.97" fill="#7a6a2a"/>
  <circle cx="32" cy="32" r="30.32" fill="#ba9f33"/>
  <path fill="#cfb66c" fill-rule="evenodd" d="M13.99 28.58c-.182-.166-.373-.332-.55-.497s-.356-.332-.537-.497l-.54-.512c-.087-.088-.18-.166-.268-.254-.088-.077-.192-.165-.28-.243-.715-.678-1.433-1.357-2.138-2.035.73.668 1.445 1.33 2.175 2.009l.253.254c.088.087.181.165.27.253l.538.497c.181.166.357.332.538.512s.358.347.539.512Zm-9.486-.103s2.6.27 3.868.45c1.175.166 4.851.73 4.851.73Zm0 0a103 103 0 0 1 2.19.218c.373.036.73.077 1.088.113l.548.063.539.077 2.175.347 1.087.181c.357.062.715.13 1.087.192a26 26 0 0 1-1.087-.14l-1.087-.155-2.175-.32c-.181-.027-.357-.063-.539-.089l-.548-.063c-.358-.036-.73-.088-1.088-.13a63 63 0 0 1-2.19-.295Zm8.46 1.858s-2.774.704-3.712.973c-.921.254-3.712 1.103-3.712 1.103z"/>
  <path fill="#cfb66c" fill-rule="evenodd" d="M12.964 30.335a72 72 0 0 1-1.853.523l-1.854.497c-.616.181-1.229.357-1.843.538l-.921.254c-.306.088-.616.166-.932.254.305-.102.616-.207.921-.295l.922-.295c.616-.192 1.229-.373 1.843-.565.626-.155 1.243-.32 1.869-.471.595-.15 1.222-.3 1.848-.44ZM5.928 34.12c.306-.114 3.826-1.755 4.644-2.138.41-.192 1.6-.615 1.6-.615z"/>
  <path fill="#cfb66c" fill-rule="evenodd" d="M5.928 34.12c.27-.103.523-.228.782-.347l.766-.357 1.538-.74c.512-.244 1.01-.513 1.538-.741a10 10 0 0 1 .807-.295l.41-.13c.14-.036.269-.077.41-.113-.513.243-1.052.45-1.564.688-.512.254-1.036.461-1.564.689l-1.564.688c-.524.213-1.036.44-1.559.658Zm.342 1.433s3.189-1.869 4.286-2.47c.575-.32 2.434-1.242 2.434-1.242Z"/>
  <path fill="#cfb66c" fill-rule="evenodd" d="M6.27 35.554c.538-.331 1.087-.668 1.636-1.01l.819-.497c.28-.165.549-.32.834-.486.28-.166.549-.332.833-.487a3 3 0 0 1 .425-.217l.435-.218c.574-.28 1.15-.564 1.755-.808-.549.347-1.113.643-1.678.948-.28.155-.564.295-.844.45s-.548.321-.833.472a19 19 0 0 1-.834.47l-.844.461zm6.694-3.304s-1.983 1.523-2.625 2.01-2.531 1.853-2.531 1.853z"/>
  <path fill="#e2cc85" fill-rule="evenodd" d="m24.345 44.526-1.015-1.92.59-2.403 4.21-1.626-1.792-3.675.885-3.713 1.662-3.324 5.136-.807 3.775-3.599 8.15.616 1.599 8.714-3.08 10.971-1.756 5.68-7.114.27-3.303-2.29-3.868-1.615z"/>
  <path fill="#f1d789" fill-rule="evenodd" d="M36.823 44.464s-.984.45-2.663.347c-.485-.652-3.887-.958-3.887-.958s-.424-.13-1.175.182c-.756.307-1.47.269-2.138.434s-1.331-.704-1.843-.885c-.512-.191-1.191-.652-1.191-.652l-1.434-.14-2.878-1.217-4.573-4.556-1.243 1.946-.383 2.407 1.382 2.853 3.723 3.391 7.259 1.843 4.302-1.267 5.39-2.279z"/>
  <path fill="#f4ecb4" fill-rule="evenodd" d="m11.033 28.362.922-2.79 1.098-1.802 3.536-.295-1.062 3.096-2.956 5.26 1.227 4.696-2.174 1.087-.669-1.025-.538-2.35-.036-2.64z"/>
  <path fill="#f3e19d" fill-rule="evenodd" d="m15 44.273-.68-.948s-.18-.45-.077-.844c.103-.398.088-.424.037-.574s-.487-.668-.461-1.114c.025-.45-.036-.6.295-.957.347-.347.243-.948.243-.948l.45.28.103-.156s.166.13.166.332c.036-.28-.114-1.574.227-1.87s.948 1.383.948 1.383l-.373-2.433-.958-2.496-1.703-2.278-.103-2.511v-.218s-.782 1.202-1 2.15c-.155.653.218 1.445.14 2.382-.062.932-.14.86.088 1.229s.782 1.129.565 1.677c-.192.472-.844.14-.844.14s-.13.383-.306.523c-.062-.227-.129-.373-.253-.512-.01.088-.036.207-.036.207s-.114-.357-.228-.807c-.155-.6-.321-1.393-.471-1.818-.062.244-.218.984-.218.984l.088 1.14.425 1.563.41 1.024.398 1.253.347.841.28.642.242 1.445 1.176 1.242.626.28.455-.233Z"/>
  <path fill="#f2e8b0" fill-rule="evenodd" d="M11.65 26.084s-.845 1.434-1.088 2.879-.46 2.972-.307 4.939c.155 1.983.45 3.2.689 4.07.41 1.444 1.47 3.453 1.47 3.453l.036-.078a5.5 5.5 0 0 1-.424-1.061c-.14-.549-.192-1.201-.321-1.496-.114-.295-.306-.549-.4-.912-.087-.346-.101-.895-.372-1.304-.114-.166-.254-.6-.295-1.035-.052-.653.026-1.383-.036-1.983-.114-1-.192-1.678-.088-2.201s.642-2.009.973-3.19c.218-.755.088-1.392.487-2.05.398-.652.642-1.227.73-1.625.102-.363-1.056 1.594-1.056 1.594Z"/>
  <path fill="#f5eec0" fill-rule="evenodd" d="M15.652 25.51s-.435.13-.642.357c-.207.217-.296.398-.575.766s-.295.668-.523 1.129c-.228.45-.73 1.128-.792 1.372s-.166 1.382-.295 1.92c-.114.54.129 1.202.129 1.202l.295-.063s0 .384.295.643c.295.253.347-.86.347-.86l1.103-3.723 1.661-1.128.182-.911-1.186-.705Z"/>
  <path fill="#e6db9d" fill-rule="evenodd" d="M16.46 27.198s-.783.051-1.166.33c-.155.115-.217.208-.383.348-.305.253-.616.486-.766.819-.166.33-.347.833-.471 1.78-.052.4-.052.767-.088 1.088-.052.435-.13.782-.088 1.024.052.497.564.756.614 1.32l1.062-.538.999-3.94 2.123-1.331-1.202-1.347-.636.444Z"/>
  <path fill="#e5cb7a" fill-rule="evenodd" d="m10.86 53.73.013-.117c.155-1.331.181-2.34.295-2.972.165-.896.28-1.229.253-1.564-.036-.538-.077-.932-.025-1.346.077-.549.616-1.2.6-1.651-.01-.358-.191-.59-.347-.808s-.28-.399-.28-.399 1.062-.73 1.052-3.67a.3.3 0 0 1 .062.025l.523 1.486.357.435 1.372 2.558 1.766 1.714 2.61 1.755 1.635 1.78.166 4.748-2.138 2.775-.35.634a30.4 30.4 0 0 1-7.565-5.383Z"/>
  <path fill="#d8c173" fill-rule="evenodd" d="M17.391 58.273s.036-.59.523-.974c.078.13.13.254.114.347.088-.155.704-1.15 2.097-1.408 1.393-.254 1.73-1.269 1.73-1.269l2.955-2.687 3.381-3.111 4.111-1.445 1.922-.471s.036.14-.037.45c.357-.025 1.15-.207 1.973-.497.331-.13.642-.181.808-.01.243.228.28.766.294 1.087.4-.088.86-.47 1.23-.435.59.062 1.112.756 1.713.756.792 0 1.15-.486 1.704-.87.331-.227.807-.512 1.076-.704.642-.471 7.435-2.547 7.435-2.547l2.382.155.383 2.558-.205 6.686q-.037.037-.076.073l-10.829 5.656-15.01 2.301a30.1 30.1 0 0 1-9.596-3.3l-.077-.342Z"/>
  <path fill="#f1d789" fill-rule="evenodd" d="M11.77 54.581c.213-.446.405-.82.439-.953.026.27.075.86.173 1.487q-.31-.263-.612-.534Z"/>
  <path fill="#e0cd81" fill-rule="evenodd" d="m22.735 60.873 1.941-.54.166.052s.088.052.088.228c.243-.14.45-.114.6-.207.078.166.155.714.497.782.357.077.74-.156 1.129-.45.383-.306.819-.69 1.149-.845a6 6 0 0 1 .321.689c.435-.347 1.191-1.755 2.268-1.73a4.1 4.1 0 0 1 1.495-1.806c1-.679 1.626-.73 2.408-.668a4.1 4.1 0 0 1 1.129-1.01c.129.052.486.27.932.062.45-.207.957-1.01 1.625-1.113a1.57 1.57 0 0 1 1.036.218s1.945-1.932 3.288-2.574c-.052-.155-.156-.74 1.418-2.035.088.078.026.296.088.308.026 0 .41-.166.896-.539.6-.45 1.32-.922 1.755-1.05.819-.244 1.688.253 1.688.253a.8.8 0 0 1 .243-.114c.207-.036.357-.062.471-.103-.01.27.14.73 0 1.129a2.5 2.5 0 0 0 .512.217c-.088.192-.28.679-.6.912.269.129.305.28.688.41-.155.217-.41.59-.523.818-.114.244-.523 1.253-.704 1.636-.192.383-.45 1.088-.575 1.229s-.575.74-.922 1.035a44 44 0 0 1 2.097-.642c-.158.233-.963 1.426-1.736 2.574a30.38 30.38 0 0 1-24.87 2.88Z"/>
  <path fill="#dfc57c" fill-rule="evenodd" d="M16.587 27.058s-.45 0-.538.062.45.192.616.254.523.346.616.574c.088.218 3.236 1.486 3.236 1.486l2.226-.114.768-1.06-1.46-1.28 1.024-3.018-1.357.218-3.262 1.945-1.636.627z"/>
  <path fill="#e5cc7c" fill-rule="evenodd" d="M21.476 28.057a.35.35 0 0 0 .307.165c.461 0 .885.114 1.062.347.295.373 1.113 1.564 1.113 1.564l1.957.704.126-2.304-2.138-1.486-2.434.896v.114h.006Z"/>
  <path fill="#d2c281" fill-rule="evenodd" d="M21.092 28.911s.357.026.808-.14 1.19-.523 1.512-.383c.45.192.357.792.844 1.331.295.332.833.322 1.139.679s1.356.191 1.356.191l.399 2.15-1.6 2.051-.523 2.547h-2.163l-1.976-.784-.974-2.355.487-2.381z"/>
  <path fill="#e2c270" fill-rule="evenodd" d="M25.277 29.015a.6.6 0 0 0 .165.026c-.062.051-.192.165-.14.46s.218.668.078.896a1.1 1.1 0 0 1 .243.424c.088.254.114.487.689.524a1.2 1.2 0 0 0-.228.18s.399.348.6.668c.208-.008.757-.18.757-.18l.114.079.243-.103s-.228-.088-.062-.642c.155-.486.295-.46.307-.497s.114-.548.114-.756c.077-.268.14-1.087.14-1.087l-.166-1.806-.932-.565-.757-.731-.715 1.346-.47.469-.037 1.165z"/>
  <path fill="#ccb360" fill-rule="evenodd" d="M27.518 27.503s.166.471.228.833a.8.8 0 0 0 .037-.217s.129.715.154 1.01c.052-.01.103-.026.114.026s.13.626.103.947a2.6 2.6 0 0 1 .87-.87c.207-.13.45-.269.704-.28.399-.01.688.254 1.165.254 1.149 0 2.19-.844 2.956-1.102.564-.192 1.051-.332 1.393-.643.165-.14.46-.45.73-.91.357-.615.73-1.15 1.103-1.217a2.3 2.3 0 0 1-.512.036s.114-.114.307-.27.425-.346.756-.346c.59 0 .885.088 1.216.088.332-.01.523-.088.523-.088s.347.243 1.129.243c.782.01 1.305.078 1.714.114s1.78-.114 2.174-.102a1.9 1.9 0 0 1 .74.181l-1.268-3.686-4.557-3.983-2.713 1.92-4.173 4.174-4.038 1.496-.844.948v1.444Z"/>
  <path fill="#d5b457" fill-rule="evenodd" d="M36.58 25.39s.113-.113.304-.269.425-.347.756-.347c.59 0 .886.088 1.217.088.331-.01.523-.088.523-.088s.347.243 1.129.243c.781.01 1.304.078 1.714.114s1.78-.114 2.174-.102a1.9 1.9 0 0 1 .74.18l-.574-1.661-.668-1.269-1.906-2.086-2.304-1.357c-.01-.01-.792-.217-.792-.217l-2.07 1.253-1.88 4.862-.036 1.024 1.216.574c.306-.512.643-.921.958-.973-.285.031-.502.031-.502.031Z"/>
  <path fill="#d2b257" fill-rule="evenodd" d="M36.553 25.737c-.181.01-.33-.026-.372-.155-.156-.435-.28-.497-.41-.497s-.305.28-.41.305-.227-.32-.227-.32l-.114-.052s-.668.434-1.14.947-1.242 1.383-1.589 1.538-1.537.207-1.945.295-.86.383-.922.45.182.14.218.207c.036.062-.399.036-.435.103-.026.051.102.346.166.497a.85.85 0 0 1 .357-.089c.399-.01.689.254 1.165.254 1.15 0 2.19-.844 2.956-1.103.565-.191 1.051-.331 1.393-.642.166-.14.46-.45.73-.91.197-.317.388-.612.58-.83Z"/>
  <path fill="#d2b159" fill-rule="evenodd" d="M20.068 51.36s-.102-.382-1.05-1.371c-.27-.28-.436-.512-.617-.678-.45-.425-.714-.539-1.035-.782-.704-.523-1.47-.523-2.06-1.165s-1.279-1.869-1.756-3.122c-.471-1.253-.601-1.652-.601-1.688s.13-.28.295-.243.166.357.207.434a2.6 2.6 0 0 0 .28.357c.243.28.59.615.766 1.114-.036-.425-.181-.896-.181-.896s.911.575 1.688 1.175c.781.601 1.102.808 1.33 1.191s.767 1.393 1.025 1.688 3.788 1.408 3.788 1.408l1.68 1.253.833 1.827-.652 1.024-1.253.27-2.035-.912z"/>
  <path fill="#c2a44d" fill-rule="evenodd" d="M15.548 45.065s.424.678 1.46 1.32c.932.565 2.408 1.077 3.723 1.383.756.18 1.512.32 2.19.331 1.827.026 3.085-.497 4.644-.668.844-.088 1.88-.155 2.956-.41 1.383-.33 2.2-.704 3.314-1.228.808-.373 1.548-.652 2.149-1.01.844-.497 1.46-1.05 2.174-1.216-.088.243-.18.678-.885 1.129.373-.011.885-.037.885-.037s-.497.295-1.372.958c-.538.41-1.253 1.103-1.983 1.564-.471.295-.984.512-1.32.688-.82.45-1.15.679-1.688 1.23.192-.011.207 0 .207 0s-.678.087-1.165.346c-.102 0-.28-.036-.59.052-.243.077-.564.254-.896.346-.47.14-.626.078-.626.078l.078.156s-.615-.011-.82.01c.037.01.026.026.026.026a.3.3 0 0 0-.102.036 1 1 0 0 1-.32.14c-.063.01-.115.01-.193.025.026.063.228.41.322.615-.078.052-1.243.932-1.243.932a1 1 0 0 1 .088.181c.036.114.052.28.088.357.088.155.14.181.14.181s-.14.026-.384.088c-.206.052-.46.14-.819.192a3 3 0 0 1-.331.026c.052.114.28.549-.14 1.05s-.549.576-.678.897a1.4 1.4 0 0 0-.207-.13c-.14-.062-.332-.155-.4-.28a3.3 3.3 0 0 1-.154.487c-.13.347-.321.689-.357.947-.14-.155-.399-.46-.756-.398s-.642.549-.704.689c0-.088-.063-.156-.078-.052-.01.114-.207 1.304-1.305 2.267-.01-.243-.01-.782-.036-.957-.102.102-.228.253-.973.574-.73.321-.615.642-.615.642s-.062-.512.332-1.05c.398-.54.642-.793.642-.834a.24.24 0 0 0-.052-.114c-.052-.052-.155-.114-.155-.156.062-.025.678-.32.642-.932-.037-.548-.27-.833-.435-1.035-.026-.026.243-.217.207-.28-.026-.036-.357-.28-.399-.409a1.2 1.2 0 0 1 .052-.228c.036-.114.062-.191.052-.269-.026-.13-.166-.487-.207-.523.036.01.295 0 .295 0s-.207-.331-.244-.486-.114-.565-.155-.642c.088.01.306.025.306 0 .01-.078-.192-.208-.103-.308.062.01.181.063.295.208-.062-.166-.165-.487-.383-.616.102-.037.45-.13.756.051s.41.435.41.435.18.14.46.347c.321.254.73.614 1.383.87.14.077.497.077.756.026a1.2 1.2 0 0 0 .32-.13.6.6 0 0 1 .115-.052 2.5 2.5 0 0 0-.192-.32c.088 0 .192.01.192.01s.062-.14-.218-.41c.062-.062.14-.102.14-.207-.088-.01-.243-.14-.28-.191.052-.037.13-.156.218-.192-.078-.062-.27-.321-.357-.347a2 2 0 0 0 .243-.114s-.435-.114-.575-.207c-.14-.102-.347-.28-.47-.331-.13-.052-.358-.078-.451-.181.087.025.227 0 .331 0 .078 0 .114.01.14.01-.01-.036-.01-.114.191-.14a1 1 0 0 0 .28-.088s-.192-.01-.41-.217-.398-.373-.522-.399c-.13-.026-.373.088-.523.078-.207-.026-.296-.13-.296-.13s-.688.062-2.215-.87c-1.32-.807-1.895-1.522-1.895-1.522a2.3 2.3 0 0 1-.357-.165c-.497-.26-1.186-.798-1.165-1.502Z"/>
  <path fill="#caa13e" fill-rule="evenodd" d="M34.596 13.99a.67.67 0 0 1 .307.207c.243.28.399.807-.155 1.372.217.077.307.102.497.077-.192.228-.627.715-.653 1.14-.025.346.192.45.192.45s-.331.383-.347 1.024a4 4 0 0 1 .512-.487c.383-.305.911-.652 1.269-.87a.7.7 0 0 0 .036.27s.667-.55 1.229-.306c.253.114.14.471.14.471s.346-.129.59.114.587.871.763 1.115c.078.114.28.331.487.668a8.5 8.5 0 0 1 .704 1.485c.01-.269.078-.688.844-.424.767.269 1.636.834 2.366 1.945s.911 2.367 1.279 2.845c.372.46.756 1.227.782 1.548s-.114 1.356.652 4.157c.217-.87.549-2.801.549-2.801l.18-1.703.208-5.271-5.504-4.573-4.302-3.122-2.801.27z"/>
  <path fill="#b59544" fill-rule="evenodd" d="M44.822 21.833s-.078-.512-1.372-1.382c-1.295-.86-2.305-.86-3.236-1.59-.715-.574-1.46-1.895-1.946-2.33-.471-.43-.549-1.672-.549-1.672l1.59-1.33 2.364-3.418 1.998-2.2.958 1.331 1.33 1.564.741 3.137.27 4.593-2.15 3.298Z"/>
  <path fill="#c89d3a" fill-rule="evenodd" d="M46.422 27.338a5.8 5.8 0 0 0-.254-2.06c-.342-1.062-1.087-2.946-1.434-3.652-.14-.782-.036-.844.114-.932s.715-.41 1.024-1.538 1.269-1.165 1.269-1.165l.59-.435.896 2.242.781 2.025.244 1.548.18 1.32-.424 2.79-2.096 1.896z"/>
  <path fill="#ceb052" fill-rule="evenodd" d="M17.164 58.444v-.057a.4.4 0 0 0 .113-.103c.036-.052.063-.114.088-.13.052-.025.296-.102.425-.077s.471.166.652.155c.373-.01.808-.295 1.497-.165 1.035.191 1.279.895 1.88 1.294.409.28.833.155.895.155h.14c.025 0 .217-.217.32-.207.208.01.228.182.358.192.305.036.896-.155 1.19-.078a.57.57 0 0 1 .373.373.57.57 0 0 1-.14.575c-.32.294-.626.574-.688.819a3 3 0 0 1 .227.192 30.1 30.1 0 0 1-7.33-2.935Z"/>
  <path fill="#cca847" fill-rule="evenodd" d="M44.734 48.1s.807-1.078 1.087-1.611c.28-.55-.885-7.513-.885-7.513l2.34-7.667-.063-2.496s.114-2.304.384-3.303c.32.575 1.32 1.268 1.538 1.636.102-.704.45-2.19.398-3.774.192.294.652 3.261.652 3.261l.461 1.999.6 2.123.669 2.242.398 1.548.228.372.192.653.181.704.523 1.652.307 1.356.244 2.46a4 4 0 0 1 .114.574c.01.27-.037.425-.037.471s.088.59.052 1c-.052.41-.052.73-.373 1.024s-.523 2.05-.523 2.05l-.574-.383s.114-.523-.156-1-.792-.574-1.087-.496c-.295.062-.885.155-1.077.32-.181.166-.626.679-1.035.912-.512.307-1.347.331-1.792.435-.45.102-.947.41-1.47.766a8 8 0 0 1-1.294.682Z"/>
  <path fill="#c39d3c" fill-rule="evenodd" d="M44.734 59.412s.034.022.1.058a30.4 30.4 0 0 0 9.692-7.184c-.03-1.048-.068-2.122-.11-2.52-.088-.844-.026-1.703-.052-2.2s-.305-2.522-.435-3.045c-.14-.523-.41-.782-.45-.782-.036.01-.254.984-.254 1.229s-.052.834-.052.984c-.036-.01-.051-.102-.051-.14-.052.13-.114.357-.14.383s.036-.217 0-.269-.103-.026-.088-.155a1.5 1.5 0 0 1 .036-.228s-.155.228-.27.808c-.113.574-.113.59-.154.642-.037.062-.244.269-.254.347-.01.14.191.28.207.357.01.13-.181.73-.244 1.024s-.036.87-.102 1.164c-.052.27-.102.425-.28.539.13.026.254.062.254.062s.181.766-.28 1.419c-.165.227-.206.331-.382.538-.347.383-.617.82-.643 1.103a2 2 0 0 1-.036-.254s-.538.627-.766.984c-.295.46-.704.435-.82.549s-.14.32-.102.486c-.102.026-.294.063-.424.461-.062.207-.218.41-.46.549s-.54.181-.69.217c.13.037.182.037.244.078-.078.13-.435.331-.834.59-.398.244-.59.6-.688.834-.103.217-.254.357-.497.383.102.062.254.207.331.254-.114.026-.307.026-.652.32-.363.301-.487.39-.653.415Z"/>
  <path fill="#d2ba6b" fill-rule="evenodd" d="M37.53 61.811a3 3 0 0 1 .639-.339c.807-.32 1.661-.383 1.998-.486.321-.103.575-.244.973-.321l-.029.256a30 30 0 0 1-3.583.89Z"/>
  <path fill="#c0993a" fill-rule="evenodd" d="M52.424 40.571s-.166.896-.461 1.46-.614 1.346-.614 1.346a2.5 2.5 0 0 1 .062-.523c-.373.217-1.28.74-1.536.973-.243.218-.653.601-.756.782.243-.714.497-1.356.538-1.651-.372.269-2.112 1.703-3.018 2.65l-2.822 2.284a10 10 0 0 1-1.004.47c-.487.207-1.061.383-1.486.549.114-.305.295-.575.549-.834.27-.253 1.077-1.128 1.2-1.536.115-.424.14-.678-.01-1.035-.14.036-.46.052-.678.114s-.45.295-.45.295.165-.948.523-1.843c-.27.01-.73.087-.73.087s.642-1.076 1.74-1.827a5.7 5.7 0 0 0-.983.305c-.642.27-1.346.668-1.87.886.296-.41 2.367-3.366 3.6-6.12 1.228-2.75 1.687-3.454 1.956-4.929.14-.73.103-1.809.14-2.775.036-.958.155-1.818.078-2.392.32.398 1.522 1.522 1.563 4.033.036 2.511-1.15 5.903-2.407 7.73.307.088 1.103.192 1.92-1.229s.808-1.817 1.103-2.407c.037.295.026.398.026.398s1.191-1.444 1.755-3.261c.114.782.45 1.47-.077 2.904-.471 1.295-1.088 1.61-1.088 1.61s.306-.051.756-.32c.078.191.063.41.192.486s.305.207.331.332c.14-.208.357-.472.425-.668-.052.41-.088 2.2.102 3.111.4-.036.808-.062 1.088-.782-.192.705-.192 1.13-.062 1.73.212-.145.403-.404.403-.404Z"/>
  <path fill="#a88f33" fill-rule="evenodd" d="M38.971 12.033s-.399.165-1.077.165c-.59 0-.424-.228-1.346-.228-1.418 0-6.373.82-7.243.808-.565-.01 1.905.243 1.905.243l6.311.088 1.269-.102.471-.96z"/>
  <path fill="#e3c571" fill-rule="evenodd" d="M22.605 24.37s-.808.617-1.15 1.088-.522.781-.91 1.165a.8.8 0 0 0 .268-.036s0 .102-.062.129a.36.36 0 0 1 .295.102c-.114.062-.424.373-.181.741.181.28.565.305.565.305s-.089.254.28.228c.791-.036 1.677-.383 2.085-.295.41.102.643.14.933.642.307.497.574.575.574.575s.182-.461.14-1.15a3.4 3.4 0 0 0 .244-1.164l-.27-1.983-1.175-1.486-1.522.844z"/>
  <path fill="#d8b65b" fill-rule="evenodd" d="M24.05 24.075s.113.27.59.295c-.052.114-.052.13-.036.218l.025.217a.5.5 0 0 0 .14-.102c.026.114-.026.294 0 .424a1 1 0 0 0 .078.228l.026-.052c.01-.026.102.28.357.512a.2.2 0 0 1 .026-.102.36.36 0 0 0 .062.181.2.2 0 0 1-.052-.036s.026.819.166 1.243a.6.6 0 0 0 .062-.088c0-.026-.01.228-.036.41-.037.18-.01.434-.01.434a1.4 1.4 0 0 1 .304-.181c.156-.063.41-.254.565-.679a4.5 4.5 0 0 0 .207-.74 1 1 0 0 1 .103.307c.01.13.253.062.253.062l.052-.564.307-1.28.28-.791 1.346-2.097 2.432-1.873 2.123.487 1.791-2.434-3.085-1.853-2.92.305-2.65 3.67-2.123 3.33z"/>
  <path fill="#d3ae4d" fill-rule="evenodd" d="M39.344 18.763s-.182.036-.704.307-.886.357-1.088.756-.217.715-.217.715.357-.155.564-.207c.218-.052.461-.037.435.052a.6.6 0 0 1-.102.165s.41-.01.398.192-.077.424-.155.523c-.077.102-.398.254-.434.373-.088.243.036.253-.011.45-.036.192-.207.564-.766 1.217-.575.652-.82 1.113-.82 1.113s-.279-.523-.424-.973c-.102.051-.652.357-.652.357l-1.274-4.437.026-.296s.114-.14.14-.398c-.192-.062-.218-.114-.472-.357s-.46-.539-.885-.74c-.062-.115-.14-.27-.45-.332s-.497-.114-.497-.114.165-.062.243-.192c-.192.026-.346.088-.766.078-.425-.01-.471-.026-.704.01s-.512.14-.616-.217c-.114-.088-.357-.01-.565.295s-.28.549-.678.668a1.4 1.4 0 0 1-.181.497c-.114.192-.295.383-.539.668-.383.45-.32 1.19-.932 1.755-.616.564.103-1.564.103-1.564l.983-2.355 2.801-2.739 4.35-.295.424 2.253 2.123.73 1.341 2.045Z"/>
  <path fill="#caa13e" fill-rule="evenodd" d="m40.032 19.26-1.827-2.635-1.28-.984s-.91-1.677-.972-1.729c-.052-.036-.912-.13-1.46-.165l.102.253a.67.67 0 0 1 .307.207c.243.28.399.808-.155 1.372.217.078.307.103.497.078-.192.228-.627.714-.653 1.14-.026.346.192.45.192.45s-.331.383-.347 1.023a4 4 0 0 1 .512-.487c.383-.307.911-.652 1.269-.87a.7.7 0 0 0 .036.27s.667-.55 1.229-.306c.253.114.14.472.14.472s.346-.13.59.114.59.87.766 1.113c.077.114.28.331.486.668a8.4 8.4 0 0 1 .705 1.486c.01-.208.051-.497.41-.497l-.545-.974Z"/>
  <path fill="#f4efc8" fill-rule="evenodd" d="M12.633 26.747s-.13-.321 0-.947.332-.922.399-1.843.668-2.071.668-2.071l1.662-.756 1.175.32.347 1.575-1.486.819s-.078.347-.497.626-1 .497-1.14.782a2.3 2.3 0 0 0-.18.549s-.425-.088-.678.191c-.27.285-.26.539-.27.756Z"/>
  <path fill="#ebcc73" fill-rule="evenodd" d="M15.988 26.328s-.14.088-.243.307c-.103-.166-.347-1.15-.357-2.035s-.064-1.105.141-1.41 1.008-.627.894-1.176c-.114-.523-.59-.74-1.175-.59-.41.102-.715.973-1.14 1.408-.32.331-.703.28-.807.46-.14.244-.01.487-.052.643-.01.052-.14.331-.373.668-.47.678-1.268 1.636-1.372 2.495.036-.486.01-.497.14-1.035l-.078-.13.512-1.677.332-1.382.74-2.315 1.305-2.366 1.268-1.419 1.32.088.156 1.983.756 3.723 1.59 1.957-2.548 1.714z"/>
  <path fill="#e5c66b" fill-rule="evenodd" d="M16.78 27.031s-.217.052-.295.01-.155-.088-.13-.14.166-.139.166-.18a.145.145 0 0 0-.129-.156c-.12-.015-.155.062-.155.062s-.114-.088-.207-.102a1.4 1.4 0 0 1 .165-.01 1.6 1.6 0 0 0-.45-.13c.13-.078.383-.306.549-.306s.269-.025.243-.113-.155-.218-.295-.27c.052-.062.088-.155-.036-.41-.13-.253-.078-.424-.036-.485.036-.078.165-.218.227-.306s.114-.207.218-.27c.052-.035.217-.102.383-.165.181-.062.332-.14.435-.062.114.078.062.181.062.181s.357-.13.678.037c.321.155 1.103.253 1.103.253l.28.565-1.853 1.59-.766.382-.156.026Z"/>
  <path fill="#e6bd62" fill-rule="evenodd" d="M19.353 24.433s-.574.383-.704.523c.078.01.207.062.155.14-.062.077-.435.346-.642.6a4 4 0 0 0-.497.73c-.077.14-.668.549-.87.6.425 0 1.28-.522 1.6-.522-.01.155.088.331.27.346s.704.114 1.408-.32c.704-.425.471-.741.766-.948.565-.373.792-.704 1.103-.911s.471-.254.471-.254.01-.155.103-.14a.14.14 0 0 1 .114.088s.538-.383 1.228-.486a.07.07 0 0 1-.036-.036s.052-.026.062-.052c0 0 .036-.052.062-.026s.062.217.114.295c.114-.052.332-.539.332-.539l.523-1.496v-1.367l-.41.078-3.071 1.304-1.865 1.932z"/>
  <path fill="#b6933f" fill-rule="evenodd" d="M28.196 17.728a1.7 1.7 0 0 0 .473-.192c-.062.166-.062.347-.331.74s-.28.451-.497.86c-.218.425-.243 1.036-.45 1.304a1 1 0 0 1 .294-.087s-.207.181-.295.372-.243.59-.626.834-.87.399-1.393.974c-.523.564-1.061 1.278-1.33 1.535.14-.243.33-.73.382-1.05s-.01-.705.078-1.13.088-.73.512-1.47 1.15-3.313 1.15-3.313l1.563-.497.471 1.118Z"/>
  <path fill="#c49937" fill-rule="evenodd" d="M27.068 16.78s-.471.679-.6 1.28-.011.548-.089.843a1.1 1.1 0 0 0 0 .55 1.95 1.95 0 0 1 .652-.643c.445-.27.808-.461 1.024-.689.217-.243.398-.642.87-.947-.192-.026-.461-.114-.512-.103.191-.217.766-.548 1.346-.947.574-.41.538-.575 1.47-.984-.305.052-.45-.026-.704 0 .102-.217.46-.32.819-.678s-.228-.885-.228-.885l-2.73 1.651-1.32 1.554Z"/>
  <path fill="#dfc068" fill-rule="evenodd" d="m19.659 15.548.062-.497.782-1.253.818-2.2V8.589l-.062-1.74.13-1.138.098-.362.103-.14.668.346.922 1.253.088 2.418-.896 3.816-2.558 2.79z"/>
  <path fill="#a88f33" fill-rule="evenodd" d="M21.694 5.069s-.41.01-.497 1.714-.13 2.599-.192 3.443-.207 1.356-.28 1.853-.114 1.175-.346 1.59c-.103.191-.321.792-.834 1.242-.575.497-1.434.844-1.564.87-.228.052-1.382.166-1.853.425-.166.088-.45.191-.766.487-.627.564-1.46 1.573-2.061 2.79-.922 1.818-1.843 6.948-1.843 6.948l.207-.346s.026-.461.487-1.27c.45-.807.32-1.713.947-3.26.243-.591.549-1.357.922-2.01.59-1.061 1.304-1.972 2.024-2.47a6.4 6.4 0 0 1 2.47-.983l1.393-.922s.243-.47.564-1.01c.45-.755 1.024-1.599 1.15-2.826.191-1.817-.27-3.008-.244-4.085s.036-1.869.254-2.06.062-.12.062-.12Z"/>
  <path fill="#c99e3d" fill-rule="evenodd" d="M21.694 13.197s.614-1.512.895-2.853c.052-.269.156-.538.182-.755.129-1.269.165-1.792 0-2.486-.13-.511-.627-.973-.886-1.33-.253-.374-.373-.513-.32-.591s.253-.207.45-.192a1.54 1.54 0 0 1 1.103.512c.398.461.714 2.025.714 2.025l.332 2.064.844 2.599-3.314 1.01Z"/>
  <path fill="#b58634" fill-rule="evenodd" d="M27.466 11.624s-.114.051-.32 0a.46.46 0 0 1-.208.434c-.217-.088-2.252.089-2.252.089s-.948-.166-1.243-1.42c-.207-.833.156-1.982.036-2.738-.18-1.114-.434-1.331-.46-1.678s-.052-.434-.052-.652c-.114-.026-.181-.062-.295-.062-.026-.102.025-.192-.088-.373.062.026.487.078.983.549.41.383.41.523.472.6.077.078.704.615.973 1.15s.792 2.242.911 2.521c.037.114.114.228.308.487.3.373.74.99 1.237 1.092Z"/>
  <path fill="#a88f33" fill-rule="evenodd" d="M24.112 6.4a14 14 0 0 1 .844 1.573c.305.689.486 1.253.87 1.714-.208-.6-.575-1.78-.793-2.2-.243-.444-.74-.922-.921-1.087Z"/>
  <path fill="#e6c367" fill-rule="evenodd" d="M20.591 14.911s-.523.13-1.496.642a16 16 0 0 1-.922.435c-.767.347-1.59.667-2.242.844.052.062.078.088.078.088s0 .254.14.399c-.078.077-1.114.782-.808 3.137.207-.077.45-.181.486-.181.063.01.078.181.156.181s.331-.102.6-.45c-.01.14-.165 1.548.668 2.495.156-.181.55-.782.55-.782l.01-.191s.036-.668.253-1.279.642-1.061.642-1.061l2.216-3.164z"/>
  <path fill="#dcba5a" fill-rule="evenodd" d="M18.52 19.556a1.2 1.2 0 0 1-.331.166 1.28 1.28 0 0 1 .217-1.01c.357-.523 1.139-1.2 1.356-1.74.14-.347.078-1.217 1.32-2.33s1.73-1.496 1.73-1.496l2.009-1.01 2.47.973-1.228 4.81-.952 2.252-3.789-.715z"/>
  <path fill="#e9ce77" fill-rule="evenodd" d="m19.966 18.25.471-.59v-.419s.523-.14 1.087-.715 1.347-1.677 2.035-1.61c.689.078.756 1.496.782 1.895s.114 1.305.254 1.792c.155.487-1.678 2.33-1.678 2.33l-1.244.947z"/>
  <path fill="#cdae50" fill-rule="evenodd" d="M21.424 23.164s.384-.6.103-.73c.165-.373.47-.766.47-.766s.218-.538.922-1.201 1.14-1.103 1.254-1.548a4 4 0 0 0 .114-.886 1.7 1.7 0 0 0 .243.166c.114.052.652.497.575 1.393s-.41 1.268-.41 1.268-.32.321-.548.487c-.244.165-.332.357-.741.373a.5.5 0 0 1 .14-.078s-.425-.052-.653.155-.712.844-.956 1.036c-.243.155-.512.331-.512.331Z"/>
  <path fill="#d2a83e" fill-rule="evenodd" d="M38.64 13.094a6.3 6.3 0 0 0-1.906-.373c-1.087-.036-2.676.026-4.235.036-1.677.01-3.2-.575-5.312-.678-.346-.207-1.228-1.113-3.981.807.165-.01 1.998-.424 2.635.374.642.792.46 2.138.373 2.459-.166.714-.705 1.755-.922 2.485s-.165 1.114-.32 1.626-.498.766-.296 1.356c.27-.166.41-.166.86-1.175s.357-1.73 1.102-2.584c.73-.86 1.946-2.035 2.408-2.33s4.131-2.2 7.973-.383c.927-.098 1.62-1.62 1.62-1.62Z"/>
  <path fill="#c29637" fill-rule="evenodd" d="M24.753 12.39a.5.5 0 0 0-.025-.115.8.8 0 0 0-.14-.207s-.911-.166-1.372-.114c-.808.088-1.538 1.087-1.88 1.6s-.766 1.304-1.227 1.714a.17.17 0 0 0-.026-.114s.026.036-.025.088-.052.077-.026.102l.078.078c.025 0 .74-.322 1.713-1.229 1.036-.947 1.828-1.433 2.242-1.6a3 3 0 0 1 .689-.204Z"/>
  <path fill="#ac8132" fill-rule="evenodd" d="M42.43 8.496s-.166.207-.373.435c-.461.487-1.062 1.035-1.574 1.6-.487.538-1.036.958-1.652 1.662s-1.331 1.486-1.512 1.714c-.165.228-.295.6-.295.792-.088-.062-.191-.13-.191-.13a1.3 1.3 0 0 0 .155.228c.13.182.331.41.435.55a1.7 1.7 0 0 1 .269.59c.062.01.46.087.958-.73s1.149-1.714 1.149-1.714l1.035-1.538.653-1.305.82-1.46z"/>
  <path fill="#a88f33" fill-rule="evenodd" d="M43.491 7.45s-.626.513-.87.82-.819 1.113-.819 1.113l.207-.026 1.051-.932.41-.73.02-.243Z"/>
  <path fill="#a67a2e" fill-rule="evenodd" d="M43.3 48.596s-.01-.425.227-.678c.244-.254.86-.627 1.46-2.025s.668-1.713.668-1.713-1.077.921-1.74 1.138c.155-.32.243-.548.32-.714-.088-.078-.46-.166-.496-.207.206-.207.32-.715.74-1.051.538-.41 1.522-1.114 2.287-1.74s2.267-2.087 2.459-2.512c.114.166.14.27.14.27s-.756.983-1.15 1.61c-.347.538-.32.843-.32.843l.714-.307s.207.766-.73 1.932c.41-.156.575-.062.807-.192-.383.244-.91.575-1.408 1.486-.486.911-1.15 1.973-2.267 2.635-1.088.7-1.714 1.222-1.714 1.222Z"/>
  <path fill="#8c6228" fill-rule="evenodd" d="M40.493 13.633s-.424.885-.486 1.573c-.01.166-.052.296-.052.487-.01.616.036 1.305-.103 1.626-.052-.13-.078-.218-.13-.27-.077.218-.217.896-.33 1.15-.052-.166-.166-.74-.156-1.419s.026-.808.026-.947c-.026.207-.166.487-.218.652-.077-.14-.165-.32-.269-.47-.062.102-.14.253-.207.33a5 5 0 0 1-.052-.46c-.01-.27-.026-.616-.01-.689.026-.14.243-.688.704-1.19.55-.601 1.114-1.756 1.28-2.113s.869-1.843.869-1.843h.538l-.782 1.78s-.47.974-.714 1.332-.756 1.382-.984 1.781c.166-.217.306-.331.471-.538.16-.145.606-.772.606-.772Z"/>
  <path fill="#cba94c" fill-rule="evenodd" d="M43.501 7.383a2.2 2.2 0 0 1-.41.74c-.32.384-1.01.896-1.345 1.305-.307.399-.922 1.486-.643 2.775.103-.28.296-.833.808-1.46s1.062-1.346 1.331-1.905c.27-.565.305-1.01.305-1.01l.103-.129-.062-.295-.088-.021Z"/>
  <path fill="#a88f33" fill-rule="evenodd" d="M53.986 41.725s-.207-.564-.27-1.077.103-.614-.088-1.2c-.114-.358-.32-.308-.372-.358s-.088-.59-.078-.885-.01-.678-.062-.844c-.078-.062-.13-.114-.244-.497-.129-.383-.191-.575-.253-.689s-.244-.217-.244-.331c0-.228.207-.347.207-.41-.01-.129-.165-.025-.207-.062-.051-.062.13-.434.063-.486-.026-.026-.207.191-.254.13-.052-.063-.114-.68-.207-1.088-.088-.399-.182-.688-.192-.808-.01-.114-.715-2.122-.885-2.61a12 12 0 0 1-.347-1.252c-.052-.243-.088-.74-.114-.689s-.01.306-.052.295c-.036-.01-.165-.895-.207-1.035-.036-.14-.254-.614-.307-.958-.052-.347-.165-1.253-.243-1.87s-.114-.869-.114-1.023a6.4 6.4 0 0 0-.062-1.129c-.103-.652-.307-1.444-.487-1.905-.347-.87-1.269-3.096-1.433-3.65 0-.14.18-.062.18-.062s.45 1.129.782 1.998c.322.87.627 1.636.705 1.714.062.078.549.932.766 2.33s.295 2.687.425 3.546c.062.41.114.844.243 1.28.14.47.357.957.642 1.703.243.626.424 1.15.523 1.6.114.574.114 1.01.181 1.294.062.244.155.73.373 1.434s.538 1.61.756 2.174c.425 1.129.614 2.071.678 2.574.057.517.249 2.309.197 2.847Z"/>
  <path fill="#be9c44" fill-rule="evenodd" d="m43.527 7.32-.026.063s.078.026.063.13a3 3 0 0 1-.026.424c-.026.182-.078.321-.088.435 0 .243.036.523-.307 1.217-.103.191-.166.357-.218.47-.13.28-.155.322-.269.451.181-.102.834-.512 1.165-.45-.228.13-.575.383-.792.714.052.01.269.052.614 0 .575-.088 1.217-.295 1.781-.253.616.036.373-.74.373-.74l-.711-1.564-1.346-.947z"/>
  <path fill="#a17c34" fill-rule="evenodd" d="M47.038 19.033s-.601-.601-.844-2.663c-.244-2.07-.192-5.119-.192-5.119l-.487-1.19s-.102-.793-.357-1.088-.756-.792-.984-1.035-.486-.575-.642-.627c.078-.13.425-.86 1.755-.87s1.741.73 1.88 1 .766 1.433.999 3.652c.217 2.215.228 2.381.192 3.147-.026.425-.166 1.409-.41 2.46-.222.89-.466 1.884-.911 2.335Z"/>
  <path fill="#8c6228" fill-rule="evenodd" d="M45.154 20.798a1.02 1.02 0 0 0 .575-.13c.191-.01.885.078 1.418-.6.036.155.13.575-.114.948.13-.13.321-.182.347-.218.01.192.192.782-.574 2.216.206-.228.45-.218.667-.243.01.269.155 1.175-.228 1.662-.253.331-.667.227-.667.227a1.3 1.3 0 0 0 0-.217c-.01-.14-.063-.28-.026-.373a1.8 1.8 0 0 1-.539-.373c-.45-.424-1.035-1.149-1.076-1.688-.052-.6.486-.73.486-.73a.6.6 0 0 1-.114-.14c-.026-.087-.052-.227-.155-.34"/>
  <path fill="#92723a" fill-rule="evenodd" d="M41.16 14.285s-.025-.036-.165.13c.026-.166.052-.322.062-.472a1.6 1.6 0 0 1 .254-.383c-.078.155-.13.295-.13.295s.192-.358.472-.575c.191-.155.435-.228.538-.373.114-.155.088-.18.114-.207 0 0 .254-.165.642-.652.052-.063.13-.13.182-.192a8 8 0 0 0 .538-.254c.254-.14.539-.33.715-.41.346-.155.714-.139.885-.383.13-.036.269-.424.243-.755.192.077 1.175.688 1.512 2.024.244.947-.192 2.407-.373 3.112s-.207 1.227-.46 1.548c-.322.425-1.357 1.024-1.61 1.32-.218.244-.87.86-.845 1.305.026.331.435.512.523.574s.088.14.254.103.228-.114.295-.114c.078.01.078.026.114.026a.4.4 0 0 0 .078-.01s-.026.47-1.129.613c-.078.011-.155.037-.254.052.13-.062.207-.062.347-.253-.155-.026-.6-.052-.715-.088.037-.062.156-.228.254-.306.088-.077-.01-.102-.088-.062a4 4 0 0 0-.383.295c-.13.114-.243.27-.45.41a1.01 1.01 0 0 1 .191-.886c-.062.01-.181.192-.295.156a1.6 1.6 0 0 1 .036-.565c.062-.233.399-.642.399-.642l1.626-2.905.346-2.2z"/>
  <path fill="#b18e3e" fill-rule="evenodd" d="M41.073 14.409s-.088.062.088.181c-.026.036-.088.166-.166.254-.087.102-.181.166-.217.254-.078.181-.14.305-.14.383s-.026.575-.243.896c-.078.114-.166.305-.228.434-.13.228-.243.41-.27.512-.05.182-.087.679-.087.679l.155-.192c-.062.13-.13.269-.228.373.062-.052.244-.181.549-.45.425-.358 1.087-.958 1.895-1.434-.243.088-.45.088-.616.114.13-.13 1.294-1.496 1.905-1.626a.24.24 0 0 0 .052-.166L43 14.57l-1.061.227-.155-.819-.71.43Z"/>
  <path fill="#543e26" fill-rule="evenodd" d="M42.761 19.069s-.14.14-.27.486a1.6 1.6 0 0 1-.253-.347c-.192-.32-.486-.73-1.175-.497-.01-.217-.026-.331 0-.486.114-.026.46-.305.807-.715.244-.28.472-.6.627-1.01.102-.077.28-.206.512-.357.331-.227.73-.538.792-.885-.155.062-.487.218-.984.192.192-.088.487-.181.45-.565.078-.051.14-.088.14-.088a.5.5 0 0 0-.18-.026c-.011-.036-.027-.087-.115-.062s-.102.026-.114.062c-.036.011-.155 0-.243.063s-.331.269-.425.305c.037-.062.088-.155.088-.155s-.253.026-.435.102c-.331.114-.714.322-1.102.523.036-.062.051-.102.077-.114s.088-.025.088-.036-.025-.102-.01-.14a5 5 0 0 1 .41-.704c.18-.243.217-.59.217-.59l.792-.399 2.226-.512 1.445.089-.181.999-.853 1.745-.73 1.589-.834.974z"/>
  <path fill="#806031" fill-rule="evenodd" d="M46.37 14.744s-.87 1.077-1.114 1.243c.156-.332 1.114-2.304 1.46-2.853-.077-.062-.18-.062.063-1.024-.207.486-.28.74-.45.87s-.192.088-.308.088a.2.2 0 0 0 .026-.13s-.73-.088-1.229-.088-1.486.27-2.035.487c-.434.181-.678.181-.833.295-.155.13-.243.27-.321.305-.062.037-.357.13-.425.228-.062.102-.165.217-.165.243s-.026.063.051.036c.026-.01.218-.113.435-.243.295-.165.653-.357.912-.47.74-.296.973-.244 1.304-.306.347-.062.844-.207 1.175-.207.332-.01.958 0 1.103.025-.062.052-.114.114-.088.332 0 .062-.052.13-.102.28a25 25 0 0 1-.615 1.485c-.227.487-.486.896-.614 1.15s-.41.921-.688 1.278-.425.575-.512.653-.715.538-.668.704c.114-.036.834-.307 1.356-.895s.627-.948 1.036-1.27.73-.858.921-1.304c.16-.414.124-.543.326-.91Z"/>
  <path fill="#b6903c" fill-rule="evenodd" d="M27.622 22.781s-.114.471-.373.704c-.254.228-.704.425-.756.808-.062.383.45.575.45.575s-.279.46-.279.807c0 .358-.01.425.026.767a.34.34 0 0 0-.102.102s.025.331.28.538.47.332.6.28a1 1 0 0 1 .051.13s.192-.487.322-.912c.129-.435.243-.373.294-.958s.615-1.59.615-1.59l.384-.858-.627-.486z"/>
  <path fill="#685026" fill-rule="evenodd" d="M28.787 23.625a4 4 0 0 0-.357.424c-.165.228-.295.435-.538.524s-.399.087-.383.331.243.347.372.471c.14.13.254.347.192.59.078-.036.218-.077.347-.357s1.034-1.983 1.034-1.983z"/>
  <path fill="#d4b968" fill-rule="evenodd" d="M32.355 19.695s.078-.207 0-.357c-.078-.155-.549-.207-.782-.383-.243-.181-.538-.307-.782-.228.037-.088.182-.28.063-.321-.114-.036-.539.155-.653.243s-.373.192-.424.254-.14.181-.192.13c-.052-.037-.078-.13-.166-.078s-.512.398-.59.6-.254.653-.782 1.165-.756.844-.6 1.036.228.052.254.217a1.4 1.4 0 0 1-.026.487c-.062.27-.166.523-.026.575.357.114.704-.103.782-.036.155.14-.088.641.28.74.372.102.74-.088.74-.088l1.356-.73 1.305-.689.667-1.32-.358-1.103-.068-.114Z"/>
  <path fill="#cca849" fill-rule="evenodd" d="M31.075 22.848s-.228-.346.052-.652.678-.435.834-.627a.24.24 0 0 0-.114-.077 1.02 1.02 0 0 1 .45-.425.43.43 0 0 0-.295-.14c-.254 0-.41.156-.642.156-.228 0-.254-.114-.254-.114s.384-.036.347-.207c-.036-.182-.102-.182-.102-.182s.74-.307.87-.47.113-.358.14-.435c.087 0 .6-.27.807-.156s.062.425.062.425.627-.471.946-.934c.28.026.41-.191.615-.191.254 0 .652.347.73 1.087.052.425.13.668.052 1.419-.037.424-.026 1.33.102 1.78.088.358.295.322.295.322a.6.6 0 0 1-.181.28c-.14.129-.156.47-.14.6a3 3 0 0 0 .078.28s-.166.191-.208.32c-.036.13-.206.218-.331.218s-.062-.01-.228 0-.217.036-.32 0-.182-.078-.14-.41c.036-.33-1.28-1.102-1.28-1.102l-2.15-.766Z"/>
  <path fill="#585136" fill-rule="evenodd" d="M28.606 26.12s.47.627 2.407.627c.922 0 1.243-.088 1.434-.14.207-.052.983-.357 1.765-1.279.704-.833.55-1.175.55-1.175l-.41-.062-1.332.181-3.938 1.678-.478.17Z"/>
  <path fill="#252211" fill-rule="evenodd" d="M30.05 26.276s-1.677.373-1.677-.689c0-1.035 1.035-2.123 1.294-2.314.27-.192.911-.41.911-.41h1.549l.294.782-.129 1.688z"/>
  <path fill="#c3b378" fill-rule="evenodd" d="M31.598 23.18s-.32-.295-1.05.102-1.321 1.229-1.357 1.983c-.036.668.549 1.165 1.46 1.191.678.026 1.087-.052 1.294-.102l-.32-.399z"/>
  <path fill="#e6d89c" fill-rule="evenodd" d="M31.283 23.345s-.078-.062-.308.062c-.191.102-.47.373-.688.565-.14.114-.228.165-.307.253-.321.383-.59 1.01-.435 1.32s.668.669 1.973.425l-.24-2.625Z"/>
  <path fill="#252211" fill-rule="evenodd" d="M30.858 23.987s-.207.321-.207.834c0 .523.295 1.356 1.382 1.418.834.052 1.393-1.2 1.999-1.687.46-.373.74-.384.74-.384s-.471-.511-1.729-1.175c-1.243-.668-2.636-.756-3.392.27.358-.026 1.512-.321 1.512-.321l.565.18z"/>
  <path fill="#6f674d" fill-rule="evenodd" d="M32.484 24.665c-.037-.077-.063-.18.088-.206s.217-.011.269.102.102.207.026.254c-.078.041-.28 0-.384-.15Zm-.244-.73s-.052.037-.026-.036c.01-.088.078-.243.244-.207s.13.218.102.27-.166.14-.27.102a.086.086 0 0 1-.051-.13Z"/>
  <path fill="#ac924c" fill-rule="evenodd" d="M18.225 24.266s.41.308.886.296c.47-.01 1.077-.497 1.356-.808.166-.181.307-.373.46-.523.13-.13.218-.192.28-.28.088-.102.182-.294.228-.357-.114.088-.28.244-.45.347a5 5 0 0 1-.668.347c-.14.052-1.59.819-1.59.819z"/>
  <path fill="#9f8e57" fill-rule="evenodd" d="M18.851 20.44s.228-.154.668-.253c.425-.103 1.28-.181 1.28-.181l.703.307.28 1.061-.512 1.103-.652.41-.741-1.19-1.024-1.254Z"/>
  <path fill="#eac970" fill-rule="evenodd" d="m17.93 21.388-.244.182s.063-.114.114-.46.321-1.191.715-1.678.383-.46.383-.46a.26.26 0 0 0-.207.05c.052-.114.383-.524.715-.728s.46-.27.807-.103.435.254.689.244.47-.28.47-.28.053.166-.139.549-.947 1.165-.947 1.165l-1.574 1.077-.782.443Z"/>
  <path fill="#d7bc6b" fill-rule="evenodd" d="M19.094 20.311s1.14.156 1.486-.165c.01.036.052.036.052.062a.1.1 0 0 1-.026.052 1 1 0 0 1 .114-.01.7.7 0 0 0 .14.025 1 1 0 0 0 .114-.01.2.2 0 0 1-.078.13c.052 0 .103.01.103.05s.01.167-.052.193a.24.24 0 0 1-.155-.01.65.65 0 0 0 .077.279c.103.191.321.41.615.347 0 0 .155.372-.497 1.2-.088.115-.182.27-.295.4a1.5 1.5 0 0 0-.103.305s1.103-.425 1.419-1.393c.321-.973.383-1.931.321-2.827-.01-.254-.052-.434-.114-.564-.155-.321-.59-.27-.766-.088-.254.254-.679.885-1.269 1.32-.6.435-.626.512-1.087.704Z"/>
  <path fill="#585136" fill-rule="evenodd" d="M17.728 21.71s-.218.129-.332.614c-.114.497.103 1.102.228 1.294s.41.715 1 .74a1.1 1.1 0 0 0 .424-.087 2.7 2.7 0 0 0 .575-.358c.254-.191.46-.357.435-.373-.063-.025-1.564-1.268-1.564-1.268l-.564-.63z"/>
  <path fill="#453a25" fill-rule="evenodd" d="M19.147 23.77s.305-.026.487-.14-1.062-1.346-1.062-1.346l.088 1.331z"/>
  <path fill="#84754b" fill-rule="evenodd" d="M17.826 21.616s-.155.295-.155.373c-.026.254.052 1.05.114 1.304.062.27.398.679.834.679.269 0 .642-.166.642-.207 0-.052-.384-.103-.487-.296-.062-.102-.088-.357-.103-.614-.01-.165-.01-.347.052-.41.14-.155.166-.6.166-.6l.497-.923h-.654l-.782.486Z"/>
  <path fill="#252211" fill-rule="evenodd" d="M17.635 21.9s.512-.677.973-.833.668-.062.668-.062l-.27.689-.383.424.026.218s-.062.574.321.973.668.383.834.383.642-.14.885-.714c.218-.539.399-1.229-.036-1.921-.425-.689-1.175-.716-1.32-.716s-1.284.057-1.698 1.559Z"/>
  <path fill="#f7f7e7" fill-rule="evenodd" d="M30.78 24.205c-.191-.088-.01-.627.181-.793s.435-.357.86-.383c.155-.01.305.088.28.192-.037.191-.306.46-.55.652-.336.264-.553.43-.77.332"/>
  <path fill="#f8f6de" fill-rule="evenodd" d="M20.425 21.27c.14-.011.321.102.357.253.037.166-.088.497-.357.497-.217 0-.331-.27-.331-.347a.4.4 0 0 1 .052-.181c.01-.016.036-.197.28-.223"/>
  <path fill="#d4c38b" fill-rule="evenodd" d="M18.406 21.388s-.357.166-.523.512a1.37 1.37 0 0 0-.102.82c.026.129.155.45.243.563s.207.192.295.182.27-.244.27-.383.01-.73.18-1.051c.15-.321-.362-.642-.362-.642Z"/>
  <path fill="#e2d59d" fill-rule="evenodd" d="M18.458 21.362c-.062.036-.166.088-.14.156.026.062.243.102.321.254.088.155.088.32.062.398a.7.7 0 0 0 .181-.13c.114-.129.254-.305.373-.305.078 0 .155.037.228.037.114 0 .228-.037.243-.156.026-.155-.217-.295-.357-.27.026-.101.062-.253-.052-.356s-.47.077-.549.13-.31.243-.31.243Z"/>
  <path fill="#cbac5a" fill-rule="evenodd" d="m26.685 32.24.766-.226.218.155s.154.332.398.373c-.078.165-.28.307-.27.425s.115.207.115.207-.689 1.139.668 2.286c-.321.13-.73.308-.948.41.155.036.487.102.627.228s.14.165.269.243.207.182.181.228c-.088-.052-.383-.207-.435-.062s-1.279.088-1.279.088l-2.07.399s.077-.208-.14-.4c-.254-.227-.565.011-.896-.242-.435-.332-.45-.715-.59-.86.14-.088.424-.217 1.103-.307-.026-.052-.114-.207-.063-.347.063-.181.321-.295.244-.512.114-.026.165-.026.45-.383.27-.357.435-.435.642-.46s.332 0 .715-.358c.269-.254.181-.471.181-.471s.176-.057.114-.414Z"/>
  <path fill="#d6bc6f" fill-rule="evenodd" d="M24.422 32.355c.01-.052.052-.078.332-.052s2.05-.165 2.532-.191c.486-.036 2.2-.01 3.034.165s1.677.384 2.086.487c.41.114.539.155.523.207-.01.052-.102.102-.155.088-.052-.01-1.409-.425-1.828-.512s-1.869-.321-2.662-.307c-.74.01-1.035-.01-1.662.062-.626.078-1.662.181-1.972.14-.307-.036-.244-.036-.228-.088Z"/>
  <path fill="#dfc677" fill-rule="evenodd" d="M28.59 36.413s1.061.575 1.445 1.28c.28.522-.166.781-.166.781s.6 0 .523.331c-.036.207-1.035.766-1.703 1.062-.679.295-.653.28-.984.331-.321.052-1.201-.102-1.383.155s-.102.523-.051.565c.051.036.47.088.47.088s-.087.243-.957.27-1.087.087-1.14.18c-.05.088.166.037.565.103.4.062.958.102.958.102s-.181.155-.652.28c-.539.14-1.383.269-1.636.424.13.088.32.218.41.228-.218.052-.524.166-.575.207.077.052.18.114.18.114s-.434.523-.688.653-1.714.807-2.216.678c-1.253-.332-1.408-1.704-1.714-1.807-.46-.155-.678.155-1.087-.063.181-.129.28-.206.471-.294-.207-.103-1.279-.782-1.279-.782a8 8 0 0 0-.372-.715c-.207-.357-.512-.833-.74-1.253-.498-.921-.524-1.346-.974-1.869.077-.102.346-.088.346-.088l3.775 1.243 6.693.194 1.741-2.485z"/>
  <path fill="#c4a859" fill-rule="evenodd" d="M18.675 40.203a.6.6 0 0 0 .14.114c.13.088.321.192.45.347.052-.078.182-.218.41 0s.512.062.688.114c.182.062.192.088.192.088s.102-.088.331-.181c.14-.052.306-.088.487-.14.165-.036.347-.088.471-.088.114.077.523.512 2.164-.13 1.549-.6 1.906-.667 2.165-.574.026-.063.051-.182.45-.166 0-.165-.331-.73-.331-.73l-1.828-.626h-1l-2.997.549-1.661.947-.13.478Z"/>
  <path fill="#927d49" fill-rule="evenodd" d="M17.676 39.152s.036.28.45.575c.41.295.539.471.539.471s.077-.102.14-.207c.062-.114.114-.243.217-.28.207-.087.678.078.782.052.088-.025.062-.207.155-.207.218-.01.357.14.435.14s.269-.01.295-.052.036-.471.331-.678c.321-.228.715-.13.82-.078 0 .078.01.27.217.28s.228-.026.41.036.398-.01.496.295c.088-.026.296-.052.244-.347.102-.077.192-.13.41-.435.051-.077.139-.165.206-.28.182 0 .4-.035.689.218-.088.062-.14.103-.166.166a2 2 0 0 1 .207.243c.078.103.13.228.228.254.218.062.575-.026.973 0 .384.026.705.166.845.254.051-.026.051-.036.18-.01s.228.036.089-.13c.077.036.165.114.243.036s.14-.191.357-.217.295.01.383-.218c.114-.28-.28-.28-.28-.28s.182-.165.384-.382c.244-.228.523-.523.59-.886.114-.668-.538-.755-.538-.755l-3.163.973-3.868-.192-3.298 1.642Z"/>
  <path fill="#6e6342" fill-rule="evenodd" d="M14.834 30.014s-.103.13-.166.435-.036.269-.088.486-.69 2.382-.45 3.112.652 1 .911 1.59c.052.129.102.207.13.32.087.384.01.679.113 1.062.037.13.13.28.27.435.307.32.808.626 1.024.844.305.32.74.973 1.294 1.035.295.036.715-.088 1.061-.295.307-.192.497-.46.82-.614.227-.114.47-.155.688-.207.45-.088.86-.103 1.103-.052.373.078 1.253.347 1.74.347a4.7 4.7 0 0 0 1.13-.155c.74-.218 1.635-.59 2.225-.756.347-.103.627-.13.912-.192.486-.114.895-.27 1.128-.564-.155-.182-.346-.461-1.382-.45-1.175.025-2.532.677-3.2.781s-.958.192-1.703-.078c-.731-.272-.756-.452-.756-.452s-.767-.536-1.088-1.905 0-2.366.833-3.314c.218-.243.166-.46.166-.46s.549-.74.399-1.434c-.166-.689-1.227-.549-1.227-.549z"/>
  <path fill="#39331f" fill-rule="evenodd" d="M15.719 32.318a.54.54 0 0 0-.062.28c.01.14.052.32.47.73.358.357.28.755.28.755s.18.036.668-.192c.384-.181.512.14.512.14a1.1 1.1 0 0 1 .358-.114.8.8 0 0 0 .32-.102s.45.46.844.678c.358.192.565.321.741.192.166-.114.166-.347.155-.45a1.3 1.3 0 0 0-.155-.27c-.114-.166-.295-.358-.307-.512-.026-.357.27-.782.207-.885s-.295-.13-.87.077c-.595.197-3.163-.326-3.163-.326Z"/>
  <path fill="#292311" fill-rule="evenodd" d="M17.075 34.632s-.295-.28-.191-1.636a1.7 1.7 0 0 1 .372.036s.161 1.052-.18 1.6"/>
  <path fill="#252211" fill-rule="evenodd" d="M14.974 28.978a1 1 0 0 0 .114-.102c-.103.191-.576.958-.192 2.164.383 1.201 1.346 2.097 2.531 2.138s1.81-.538 2.522-1.408c.28-.347.6-.782.885-1.077.425-.46.756-.59.756-1.035 0-.911-.932-1.32-2.304-1.73s-2.61-.358-3.251-.078c-.627.305-.896.626-1.062 1.129Z"/>
  <path fill="#3f3824" fill-rule="evenodd" d="m19.38 35.041.102-.052s.025-.41.191-.398c.166.026.244.243.228.32-.01.078-.052.208-.218.192-.217.006-.305-.062-.305-.062Z"/>
  <path fill="#2d2815" fill-rule="evenodd" d="M18.919 33.302s.102-.037.227.088c.103 0 .55-.052.689.036s.181.165.181.165-.523.114-.808 0c-.29-.098-.29-.29-.29-.29"/>
  <path fill="#82764f" fill-rule="evenodd" d="M21.223 33.38c0-.027-.28-.218-.575-.28-.052-.011-.062.025-.102.025-.026-.01-.037-.088-.037-.088l-.168.089s-.025.036.063.102c.077.062.207.114.243.217s.036.14.052.156c.01.01.191 0 .28-.052s.253-.137.243-.17Z"/>
  <path fill="#2d2816" fill-rule="evenodd" d="M18.608 34.43s.052-.357.399-.372c.357-.026.424.32.424.32l-.207.208c0-.005-.155-.223-.614-.156Z"/>
  <path fill="#574f35" fill-rule="evenodd" d="M20.86 32.892s-.192.208-.616.27c-.036-.052-.114-.156 0-.321s.244-.217.373-.166a.3.3 0 0 1 .243.217"/>
  <path fill="#82764f" fill-rule="evenodd" d="M21.642 33.146c.01-.052-.026-.062 0-.088s.166-.077.192-.052c.01.011 0 .052 0 .103s0 .102-.026.14c-.036.051-.14.077-.192.062s-.062-.088-.062-.103c.026-.01.088-.036.088-.062m.884-.559c0-.026.088-.077.14-.077.077 0 .077.062.088.077.025.01.025-.01.051.037s.063.129.037.18-.13.088-.155.078c-.037-.026-.15-.258-.161-.295"/>
  <path fill="#6e6342" fill-rule="evenodd" d="M20.746 33.265s.114.026.27.156c-.052.036-.13.077-.13.077s-.01-.119-.14-.233Z"/>
  <path fill="#585136" fill-rule="evenodd" d="M20.493 32.126c-.026-.025.077-.087.14-.077s.087.052.155.062.077-.026.102-.052.114-.01.13 0l.025.036a.14.14 0 0 1 .052-.102.16.16 0 0 1 .14-.026c.01.036.062.165.052.191s-.166.063-.192.036c.026.063.14.192.155.218s-.114.088-.165.078c-.073-.005-.518-.264-.596-.363Zm.678-.86a.12.12 0 0 0-.052-.061c-.036-.01-.155 0-.155.062s.102.41.217.59c.13.182.217.331.306.373a.12.12 0 0 0 .155-.052c.01-.026.036-.217.026-.668s-.026-.885-.052-.911-.13-.026-.166.026-.269.564-.28.642Z"/>
  <path fill="#574f35" fill-rule="evenodd" d="M20.71 33.918s-.181-.114-.357-.036c-.166.077-.156.383-.156.383a.25.25 0 0 0 .228-.026c.114-.078.26-.207.285-.32Z"/>
  <path fill="#82764f" fill-rule="evenodd" d="M21.052 34.327c-.01-.102-.103-.102-.103-.155a.116.116 0 0 1 .114-.088c.052 0 .102.062.166.102.062.036.155.102.165.181s-.102.295-.227.295-.088-.233-.114-.336Zm1-.14s-.208.062-.193 0 .063-.077.13-.077a.2.2 0 0 1 .13-.063.11.11 0 0 1 .077.026s.14-.062.181-.026.01.036.036.078a.4.4 0 0 1 .063.155c0 .041-.156.13-.28.114-.145-.03-.12-.181-.145-.207m1.206-.233s.062.036.01.078c-.035.036-.217.102-.372.114-.156 0-.295.025-.295-.026s.13-.156.207-.181a.16.16 0 0 1 .13-.063c.062 0 .305-.026.372-.036.062-.01.114.026.078.078-.016.036-.13.036-.13.036m.358-1.599s-.078.166-.166.166c-.088-.01-.088-.036-.088-.062 0-.037.088-.13.077-.156-.025 0-.088 0-.077-.062 0-.052.088-.114.165-.102a.34.34 0 0 1 .208-.078c.088 0 .165.026.165.078s-.102.165-.14.192c-.041.041-.093.068-.144.025Zm-1.181 3.06s-.102.01-.102.062c0 .026.025.026.062.01a.3.3 0 0 0 .062-.01c.01.01.01.062.088.062a.5.5 0 0 0 .181-.062c.062-.025.114-.052.114-.102q-.04-.131-.155-.13a.2.2 0 0 0-.114.026s-.026-.052-.114 0-.078.052-.052.078c.046.041.031.068.031.068Zm-.585.539c0-.026.13-.078.166-.063.036.01.14.207.14.228 0 .026-.13.088-.182.088s-.14-.088-.14-.102c0-.01.062-.026.062-.036.016-.026-.046-.088-.046-.114Zm-.41-.756c.026-.01.026-.037.063-.063a.09.09 0 0 1 .077-.01.13.13 0 0 1 .088-.062c.063-.01.114 0 .103.026 0 .078.052.13.052.191s-.036.14-.166.192c-.13.036-.305.036-.331.026s-.052-.114-.026-.166.098-.108.14-.134Z"/>
  <path fill="#6e6342" fill-rule="evenodd" d="M21.604 35.233s-.088.052-.088.078a.2.2 0 0 0-.01.077c0 .015.114-.01.13-.026.004-.01-.032-.102-.032-.13"/>
  <path fill="#585136" fill-rule="evenodd" d="M20.834 34.99c.052.01.14 0 .207.025.052.026.088.078.036.14s-.102.156-.217.14c-.13-.01-.254-.078-.254-.13a.25.25 0 0 1 .062-.18c.052-.042.078-.016.166.004Z"/>
  <path fill="#574f35" fill-rule="evenodd" d="M20.772 35.041s-.165.13-.207.192c-.052.062-.305.383-.383.45a1 1 0 0 1 .088-.13.53.53 0 0 0-.218.28c-.062.192.348.296.616.373s.373.103.373.103a3 3 0 0 1-.253-.471c-.103-.243-.156-.27-.088-.383.051-.114.13-.192.13-.28a2 2 0 0 0-.058-.134"/>
  <path fill="#252211" fill-rule="evenodd" d="M14.87 35.45a.3.3 0 0 0 .114 0c.077-.01.885-.307 1.73-.253a9.3 9.3 0 0 1 1.868.307c1.062.28 2.382.833 3.236 1.15.228.087.45.243.614.304.653.254.678.254 1.062.322.45.062.911-.089 1.393-.192.59-.13 1.6-.192 2.485-.321a5 5 0 0 0 .844-.192s-.704.705-2.393.958a7.5 7.5 0 0 1-2.06.026 6.3 6.3 0 0 1-1.165-.207c-.305-.088-.932-.321-1.703-.512-.539-.14-1.14-.243-1.828-.373-1.698-.31-3.541-.668-4.198-1.014Z"/>
  <path fill="none" d="m13.99 28.885-4.313-4.028"/>
  <path fill="#cfb66c" fill-rule="evenodd" d="M12.964 32.25a30 30 0 0 1-1.268 1l-1.279.982c-.435.321-.86.653-1.294.974s-.87.626-1.331.921c.41-.346.844-.668 1.278-.983s.886-.626 1.306-.946l1.278-.984c.44-.32.865-.652 1.31-.963Zm-2.262 3.625s.46-.383 1.035-.921c.715-.668 1.59-1.523 1.87-1.678z"/>
  <path fill="#cfb66c" fill-rule="evenodd" d="M10.702 35.875a18 18 0 0 1 .714-.668l.373-.321c.114-.102.244-.217.358-.331.227-.228.45-.472.678-.705a4 4 0 0 1 .357-.33 1 1 0 0 1 .207-.14c.062-.037.13-.103.217-.115-.051.078-.113.114-.165.181-.062.052-.114.114-.166.166-.114.114-.243.217-.357.321-.243.207-.497.41-.74.626s-.471.45-.715.668c-.264.223-.507.44-.761.649Zm3.096-2.071s-1.688 1.652-2.035 1.92Z"/>
  <path fill="#cfb66c" fill-rule="evenodd" d="M13.798 33.804a6 6 0 0 1-.487.497l-.512.486c-.166.166-.321.332-.497.497-.181.156-.347.307-.539.45l.497-.486c.166-.165.347-.305.523-.47l.497-.488c.171-.17.337-.336.518-.486m.078.895a11 11 0 0 1-.55 1.269c-.434.87-1.086 1.957-1.371 2.511z"/>
  <path fill="#cfb66c" fill-rule="evenodd" d="M13.876 34.7c0 .191-.052.357-.114.523a5 5 0 0 1-.207.486c-.078.155-.166.321-.254.472s-.192.305-.27.46l-.522.922c-.182.307-.358.616-.55.911.13-.331.306-.642.472-.947.181-.308.347-.615.512-.932a5 5 0 0 0 .218-.487c.077-.166.154-.321.217-.471.077-.166.14-.321.217-.471.088-.16.16-.316.28-.466Z"/>
  <path fill="#dec270" fill-rule="evenodd" d="M15.719 38.945s-.512.678-.46 1.538c.139-.45.315-1.14.46-1.538m.487.68s-.182 1.843-.332 2.75c.212-1.048.254-.96.332-2.75m3.39 2.858s-.765 2.253-.781 2.879c.166-.644.487-1.96.782-2.88Z"/>
  <path fill="#cbaf59" fill-rule="evenodd" d="M21.388 38.806s1.243 2.05 2.175 3.8c-.252-.88-.832-2.496-2.175-3.8"/>
  <path fill="#e3c677" fill-rule="evenodd" d="M24.728 41.824a38 38 0 0 1 1.843 3.722c-.104-.88-.383-2.386-1.843-3.722"/>
  <path fill="#ecd592" fill-rule="evenodd" d="M34.544 44.847c.207-.13.616-.834.974-1.01.357-.181.626-.217.947-.574.321-.374.41-.601 1.113-.896.984-.425.307-.974.307-.974a3 3 0 0 1 .347-.295c.254-.191.549-.424.523-.833-.036-.689-.165-1.688-.73-2.268.55-.114 1.6-.192 2.253-.357.755-.192 1.103-.461 1.103-.461s-.435-.74.269-1.486 1.279-1.19 1.703-2.024c-.486-.063-1.228-.321-3.122.398a2.4 2.4 0 0 1 .295.166s-1.165.32-1.59.678c-.74.627-.833 1.14-1.635 1.522s-1.61.28-2.278.59-.766.575-1.01.69c.052.061-.01.165.088.253-.062.088-.425.678-.792.678.036.14.347.243.347.243s-.228.166-.808.208c.295.307.575.642 1.346 1.128-.062.13-.321.321-.217.565.114.243.41.574 1.59.844-.601.025-1.305.165-2.253.036-.948-.114-1.103-.181-1.688-.036.062.062.228.062.373.227-.156.01-1.13-.114-1.46.322-.347.45-.497 1.19-.471 1.687-.182.088-.358.244-.27.565s.549.424.844.626c.295.218.321.295.6.243.296-.062.73-.357.985-.357s.434.192.434.192.69-.331.756-.27c.062.063.01.461.078.524.068.046.844-.414 1.051-.544Z"/>
  <path fill="#fff" fill-opacity=".8" fill-rule="evenodd" d="M49.595 24.127c-3.236-8.356-11.235-9.904-11.235-9.904H15.538l.088 8.511h4.545v19.007h-4.634v8.496h22.191c5.348 0 9.636-5.374 9.636-5.374 6.865-9.744 2.231-20.736 2.231-20.736Zm-11.748 15.01s-1.74 2.51-3.634 2.51h-3.788l-.09-18.892h4.862s2.252.471 3.826 4.929c0 0 2.086 6.382-1.176 11.453"/>
</svg>
