<svg xmlns="http://www.w3.org/2000/svg" viewBox="0 0 64 64">
  <path fill="#fff" d="M64.003 32.002c0 17.674-14.326 32.002-32.001 32.002S0 49.676 0 32.002 14.327 0 32 0s32.002 14.327 32.002 32.002"/>
  <path fill="#f26822" d="M32.002 0C14.333 0-.018 14.349.004 32.001A32.1 32.1 0 0 0 1.63 42.108h9.574V15.187l20.799 20.798 20.797-20.798v26.921h9.577A32.1 32.1 0 0 0 64 32.002c.03-17.671-14.329-31.998-32-31.998Z"/>
  <path fill="#4d4d4d" d="m27.219 40.767-9.077-9.077v16.94h-6.94l-6.548.001c5.617 9.215 15.768 15.38 27.348 15.38S53.733 57.845 59.35 48.63H45.86V31.69l-9.078 9.077-4.781 4.781z"/>
</svg>
