<svg xmlns="http://www.w3.org/2000/svg" viewBox="0 0 64 64">
  <g fill="none" transform="scale(2)">
    <circle cx="16" cy="16" r="16" fill="#000"/>
    <path fill="#fff" d="m23.13 9.3-2.4 1.22-11.6 5.9A6.9 6.9 0 0 1 19.35 9.5l1.37-.7.2-.1a8.44 8.44 0 0 0-13.36 7.47 1.5 1.5 0 0 1-.84 1.48l-.72.37v1.72l2.13-1.08.7-.36.67-.35 12.23-6.23 1.38-.7 2.84-1.44V7.86zm2.82 2L10.2 19.32l-1.37.7L6 21.46v1.73l2.8-1.43 2.4-1.23 11.62-5.91a6.9 6.9 0 0 1-10.23 6.93l-.08.04-1.5.76a8.44 8.44 0 0 0 13.38-7.47 1.5 1.5 0 0 1 .83-1.49l.73-.37z"/>
  </g>
</svg>
