<svg xmlns="http://www.w3.org/2000/svg" xml:space="preserve" viewBox="0 0 64 64">
  <path d="M1988.73 1002.55c-.22 540.56-439.89 971.67-990.58 971.3-547.8-.37-987.45-435.1-987.15-976.07C11.3 459.58 456.73 26.2 1008.8 27c540.63.78 980.15 438.33 979.93 975.55m-217.8-13.46c-9.45-206.48-79.26-387.5-230-532.35-196.53-188.86-433-243.35-696.68-200.66-296.78 48.05-621.73 333.97-614.7 757.47 6.75 407.34 345.57 744.48 771.3 742.56 434.88-1.95 776.93-350.23 770.08-767.02" style="fill:#030302" transform="scale(.032)"/>
  <path d="M1770.88 989.11c6.9 416.77-335.15 765.05-770.03 767-425.73 1.92-764.55-335.22-771.3-742.56-7.03-423.5 317.92-709.42 614.7-757.47 263.68-42.69 500.16 11.8 696.69 200.66 150.73 144.84 220.54 325.87 229.94 532.37" style="fill:#dea038" transform="scale(.032)"/>
  <path d="M893.02 1464.53H634.95c-16.71-98.06-4.85-182.8 61.8-262.1 117.1-139.32 212.9-295.5 342.05-437.4H663.58V537.46H891.4V368.9h210.85v167.65h253c1.18 92.74 10.64 176.1-56.04 256.43-116.14 139.9-212.76 295.53-337.73 441.33h408.7v228.4H1104.4v163.49H893.02z" style="fill:#030302" transform="scale(.032)"/>
</svg>
