<svg xmlns="http://www.w3.org/2000/svg" viewBox="0 0 64 64">
  <defs>
    <linearGradient id="a" gradientUnits="userSpaceOnUse" x1="267.7757" y1="244.5651" x2="267.7757" y2="98.3522">
      <stop offset="0" stop-color="#f2792b"/>
      <stop offset="1" stop-color="#faec32"/>
    </linearGradient>
    <linearGradient id="b" gradientUnits="userSpaceOnUse" x1="172.7042" y1="339.2558" x2="172.7042" y2="210.0998">
      <stop offset="0" stop-color="#f26e2a"/>
      <stop offset=".7363" stop-color="#faeb32"/>
    </linearGradient>
    <linearGradient id="c" gradientUnits="userSpaceOnUse" x1="282.4347" y1="373.7794" x2="282.4347" y2="253.8612">
      <stop offset="0" stop-color="#f26e2a"/>
      <stop offset=".7951" stop-color="#faeb32"/>
    </linearGradient>
    <linearGradient id="d" gradientUnits="userSpaceOnUse" x1="222.9985" y1="392.9524" x2="222.9985" y2="284.8866">
      <stop offset="0" stop-color="#f26e2a"/>
      <stop offset=".7951" stop-color="#faeb32"/>
    </linearGradient>
    <linearGradient id="e" gradientUnits="userSpaceOnUse" x1="345.7055" y1="295.3446" x2="345.7055" y2="153.8132">
      <stop offset="0" stop-color="#f26e2a"/>
      <stop offset=".6178" stop-color="#faeb32"/>
    </linearGradient>
    <linearGradient id="f" gradientUnits="userSpaceOnUse" x1="186.5698" y1="215.1667" x2="186.5698" y2="122.0906">
      <stop offset="0" stop-color="#f26e2a"/>
      <stop offset=".7951" stop-color="#faeb32"/>
    </linearGradient>
    <linearGradient id="g" gradientUnits="userSpaceOnUse" x1="219.1964" y1="206.2265" x2="201.4941" y2="236.8877">
      <stop offset="0" stop-color="#f26e2a"/>
      <stop offset="1" stop-color="#faeb32"/>
    </linearGradient>
    <linearGradient id="h" gradientUnits="userSpaceOnUse" x1="270.4061" y1="243.2045" x2="305.4173" y2="208.1933">
      <stop offset="0" stop-color="#f26e2a"/>
      <stop offset=".7089" stop-color="#faeb32"/>
    </linearGradient>
  </defs>
  <circle cx="32" cy="32" r="32" fill="#11021e"/>
  <g transform="scale(.128)">
    <polygon fill="url(#a)" points="214.1,116.9 247.5,98.4 321.5,141.9 321.5,224.2 271.8,244.6 271.8,209.7 308,209.7 308,149.5 247.5,114.3 227.9,124.5"/>
    <polygon fill="url(#b)" points="159.9,328.4 132.6,309.1 132.6,248.2 180.1,224.5 225.9,244.1 225.9,210.1 177.2,210.1 119.5,240.5 119.5,315.9 151.2,339.3"/>
    <polygon fill="url(#c)" points="252.8,297.1 252.8,328.8 289.8,357 352.5,312.8 352.5,283.5 366.4,283.5 366.4,319.7 290.1,373.8 239.2,335.1 239.2,297.1 198.4,253.9 294.6,253.9"/>
    <polygon fill="url(#d)" points="186.9,285.2 186.9,346.9 246.5,377.6 267.1,369.6 273,381.8 246.2,393 173,355.3 173,284.9"/>
    <polygon fill="url(#e)" points="310.7,283.5 365.4,249 365.4,185.9 339.3,164.3 348.7,153.8 380.7,179.6 380.7,256.7 318.3,295.3"/>
    <polygon fill="url(#f)" points="132.9,214.8 132.9,176.1 196,138.1 246.2,167.1 253.5,155.2 195.3,122.1 119.6,168.1 119.6,215.2"/>
    <polygon fill="url(#g)" points="225.9,244.1 180.1,224.5 225.9,210.1"/>
    <polygon fill="url(#h)" points="271.8,244.6 271.8,209.7 321.5,224.2"/>
  </g>
</svg>
