<svg xmlns="http://www.w3.org/2000/svg" viewBox="0 0 64 64">
  <circle cx="32" cy="32" r="32" fill="#000"/>
  <g fill="#fff" transform="scale(2)">
    <path d="M27.74 13.54a12 12 0 0 0-.7-2.24 12 12 0 0 0-1.1-2.04A12 12 0 0 0 24.5 7.5a12 12 0 0 0-1.77-1.45 13 13 0 0 0-2.03-1.1 12 12 0 0 0-9.28 0A12 12 0 0 0 7.6 7.5a12 12 0 0 0-1.46 1.77 13 13 0 0 0-1.1 2.03 12 12 0 0 0 0 9.28q.46 1.06 1.1 2.03a12 12 0 0 0 1.46 1.77 12 12 0 0 0 1.77 1.45q.96.65 2.03 1.1a12 12 0 0 0 9.28 0q1.06-.45 2.03-1.1a12 12 0 0 0 1.77-1.45 12 12 0 0 0 1.45-1.77q.65-.95 1.1-2.03a12 12 0 0 0 .7-7.04M16.06 26.38a10.43 10.43 0 1 1 0-20.86 10.43 10.43 0 0 1 0 20.86"/>
    <path d="M16.25 25.48h.28l.14-.01h.02l.13-.02H17l.13-.02h.02l.15-.01q.07 0 .13-.03h.03l.1-.01h.03l.14-.03q.16 0 .28-.06h.02l.13-.02.29-.07a11 11 0 0 1-2.73-.26A8.6 8.6 0 0 1 12 23.2a7.5 7.5 0 0 1-2.72-5.86 7 7 0 0 1 1.68-4.56 7.3 7.3 0 0 1 5.4-2.57h.29V8.59h-.32a9 9 0 0 0-1.84.22 9 9 0 0 0-1.76.6q-.86.4-1.62.98a9 9 0 0 0-1.4 1.35 8 8 0 0 0-1.02 1.5 9 9 0 0 0-.67 1.63 9 9 0 0 0-.33 1.7l-.04.54v.32q.02.94.22 1.84a9 9 0 0 0 2.28 4.18 9.5 9.5 0 0 0 5.87 2.03z"/>
    <path d="M18.91 23.91a13 13 0 0 1-1.8-.2c-2.52-.45-4.69-2-5.48-4.32a5.33 5.33 0 0 1 3.33-6.82 5 5 0 0 1 1.66-.27q1.1 0 2.11.42l.69-1.46-.63-.23a7 7 0 0 0-2.17-.33 7 7 0 0 0-2.16.35 7 7 0 0 0-2.41 1.4 7 7 0 0 0-.92 1 7 7 0 0 0-.7 1.13 7 7 0 0 0-.69 2.58q-.1 1.4.37 2.75a7 7 0 0 0 1.47 2.43 8 8 0 0 0 2.14 1.6 10 10 0 0 0 3.11.87c.74.1 1.72.12 2.3.12l.97-.38q.36-.16.7-.36l.66-.41.1-.08c-1.35.24-1.7.22-2.65.21"/>
    <path d="M21.93 22.09c-.38.02-.92.06-1.53.06-1.1 0-2.43-.1-3.57-.48-1.76-.59-3.43-2.1-3.43-3.96a3.35 3.35 0 0 1 3.36-3.35c1.26 0 2.35.7 2.93 1.71l1.45-.72a5 5 0 0 0-.87-1.16 4.97 4.97 0 0 0-7.03 0 5 5 0 0 0-1.45 3.51 5 5 0 0 0 .43 1.99q.38.84 1.06 1.58c.8.85 1.89 1.54 3.05 1.93a12 12 0 0 0 5.68.2 9 9 0 0 0 1.47-1.46z"/>
  </g>
</svg>
