<svg xmlns="http://www.w3.org/2000/svg" fill="none" viewBox="0 0 64 64">
  <path fill="#9e1f19" fill-rule="evenodd" d="M31.88 63.92c9.48 0 18-4.12 23.85-10.66a7.6 7.6 0 0 0-9.73-.18l-.55.45a12.8 12.8 0 0 1-17.6-1.44 6.84 6.84 0 0 0-9.54-.63l-6.4 5.47a32 32 0 0 0 19.97 6.99m10.37-15.48a13.56 13.56 0 0 1 17.04.01 32 32 0 0 0 4.58-16.49 32 32 0 0 0-5.6-18.07 7.6 7.6 0 0 0-6.61 1.74l-.54.48a12.8 12.8 0 0 1-17.64-.63 6.84 6.84 0 0 0-9.57-.2l-7.43 7-4.09-4.35 7.43-6.99a12.8 12.8 0 0 1 17.93.37 6.84 6.84 0 0 0 9.41.33l.54-.47a13.5 13.5 0 0 1 5.57-2.97A31.98 31.98 0 0 0 .17 27.75a13.1 13.1 0 0 1 15.04 2.66 7.13 7.13 0 0 0 9.49.64l4.15-3.25a13.84 13.84 0 0 1 17.61.47l8.1 7.05-3.93 4.5-8.09-7.05a7.9 7.9 0 0 0-10.01-.27l-4.16 3.25a13.1 13.1 0 0 1-17.43-1.17 7.13 7.13 0 0 0-9.98-.22l-.9.84A32 32 0 0 0 7.6 52.77l6.82-5.84a12.8 12.8 0 0 1 17.89 1.2 6.84 6.84 0 0 0 9.39.76z" clip-rule="evenodd"/>
</svg>
