<svg xmlns="http://www.w3.org/2000/svg" viewBox="0 0 64 64">
  <circle cx="32" cy="32" r="32" fill="#eab300"/>
  <g fill="#fff">
    <path d="M44.59 24.16c-.41-4.28-4.11-5.72-8.79-6.13v-5.95h-3.62v5.8q-1.43 0-2.88.03v-5.83h-3.62v5.94l-2.3.04v-.02h-5v3.86s2.68-.05 2.63 0c1.47 0 1.94.85 2.08 1.58v6.78l.38.02h-.38v9.5c-.07.45-.34 1.19-1.36 1.19.05.04-2.63 0-2.63 0l-.72 4.32h4.71l2.58.02v6.02h3.62v-5.95l2.9.02-.01 5.93h3.62v-6c6.08-.35 10.34-1.89 10.87-7.6.43-4.6-1.74-6.66-5.19-7.49 2.1-1.06 3.41-2.94 3.1-6.08m-5.07 12.86c0 4.49-7.69 3.98-10.14 3.98v-7.97c2.45 0 10.14-.7 10.14 3.99m-1.68-11.24c0 4.08-6.42 3.6-8.46 3.6v-7.22c2.04 0 8.46-.65 8.46 3.62"/>
    <path d="M23.1 30.1h.53v.4h-.53z"/>
  </g>
</svg>
