<svg xmlns="http://www.w3.org/2000/svg" viewBox="0 0 64 64">
  <circle cx="32" cy="32" r="32" fill="#fff"/>
  <defs>
    <radialGradient id="a" cx="0" cy="0" r="1" gradientTransform="translate(12 12)scale(-13.026)" gradientUnits="userSpaceOnUse">
      <stop stop-color="#6d28ff"/>
      <stop offset="1" stop-color="#f7a7f9"/>
    </radialGradient>
    <radialGradient id="b" cx="0" cy="0" r="1" gradientTransform="rotate(90 0 12)scale(10.0119)" gradientUnits="userSpaceOnUse">
      <stop stop-color="#ffcd6b"/>
      <stop offset="1" stop-color="#eb5edf"/>
    </radialGradient>
    <radialGradient id="c" cx="0" cy="0" r="1" gradientTransform="rotate(-90 12 0)scale(10.0038)" gradientUnits="userSpaceOnUse">
      <stop stop-color="#a273ff"/>
      <stop offset=".5" stop-color="#9faeff"/>
      <stop offset="1" stop-color="#aaf2e1"/>
    </radialGradient>
    <radialGradient id="d" cx="0" cy="0" r="1" gradientTransform="rotate(114.172 2.116 9.883)scale(10.719)" gradientUnits="userSpaceOnUse">
      <stop stop-color="#ffd2b9"/>
      <stop offset=".29" stop-color="#c99bed"/>
      <stop offset="1" stop-color="#0075ff"/>
    </radialGradient>
    <radialGradient id="e" cx="0" cy="0" r="1" gradientTransform="rotate(-98.995 11.125 .874)scale(10.0139)" gradientUnits="userSpaceOnUse">
      <stop stop-color="#f7a7f9"/>
      <stop offset="1" stop-color="#00ddfb"/>
    </radialGradient>
    <radialGradient id="f" cx="0" cy="0" r="1" gradientTransform="rotate(-90 12 0)scale(10.0038)" gradientUnits="userSpaceOnUse">
      <stop stop-color="#a273ff"/>
      <stop offset=".5" stop-color="#9faeff"/>
      <stop offset="1" stop-color="#aaf2e1"/>
    </radialGradient>
    <radialGradient id="g" cx="0" cy="0" r="1" gradientTransform="translate(12 12)scale(-10.0208)" gradientUnits="userSpaceOnUse">
      <stop stop-color="#fff3d0"/>
      <stop offset="1" stop-color="#ffc044"/>
    </radialGradient>
    <radialGradient id="h" cx="0" cy="0" r="1" gradientTransform="rotate(90 0 12)scale(10.0119)" gradientUnits="userSpaceOnUse">
      <stop stop-color="#ffcd6b"/>
      <stop offset="1" stop-color="#eb5edf"/>
    </radialGradient>
    <radialGradient id="i" cx="0" cy="0" r="1" gradientTransform="rotate(114.172 2.116 9.884)scale(10.719)" gradientUnits="userSpaceOnUse">
      <stop stop-color="#ffd2b9"/>
      <stop offset=".29" stop-color="#c99bed"/>
      <stop offset="1" stop-color="#0075ff"/>
    </radialGradient>
    <radialGradient id="j" cx="0" cy="0" r="1" gradientTransform="rotate(90 0 12)scale(10.0326)" gradientUnits="userSpaceOnUse">
      <stop stop-color="#d5faff"/>
      <stop offset="1" stop-color="#00ddfb"/>
    </radialGradient>
    <radialGradient id="k" cx="0" cy="0" r="1" gradientTransform="rotate(35.99 -12.471 24.471)scale(9.9752)" gradientUnits="userSpaceOnUse">
      <stop stop-color="#0075ff"/>
      <stop offset="1" stop-color="#00ddfb"/>
    </radialGradient>
  </defs>
  <path fill="url(#a)" d="M2.7 15.024A9.8 9.8 0 0 1 2.22 12l.073-.055 9.432.02L12 12z" transform="scale(2.667)"/>
  <path fill="url(#b)" d="M15.023 21.3a9.8 9.8 0 0 1-4.552.359l-.073-.11 1.571-9.424.032-.125z" transform="scale(2.667)"/>
  <path fill="url(#c)" d="M21.78 12a9.8 9.8 0 0 1-.48 3.022h-.21l-9.04-2.986L12 12z" transform="scale(2.667)"/>
  <path fill="url(#d)" d="M4.088 6.252q.452-.623.996-1.167l.082.025 6.787 6.813.046.077z" transform="scale(2.667)"/>
  <path fill="url(#e)" d="M5.086 5.085A9.78 9.78 0 0 1 10.47 2.34l.044.072L12 11.842V12z" transform="scale(2.667)"/>
  <path fill="url(#f)" d="M10.47 2.341a9.8 9.8 0 0 1 4.552.358L12 12z" transform="scale(2.667)"/>
  <path fill="url(#g)" d="M2.22 12a9.8 9.8 0 0 1 .48-3.022L12 12z" transform="scale(2.667)"/>
  <path fill="url(#h)" d="M17.748 4.088a9.78 9.78 0 0 1 3.552 4.89L12 12z" transform="scale(2.667)"/>
  <path fill="url(#i)" d="M6.252 19.911a9.8 9.8 0 0 1-2.164-2.163L12 12z" transform="scale(2.667)"/>
  <path fill="url(#j)" d="M10.47 21.659a10 10 0 0 1-1.492-.359L12 12z" transform="scale(2.667)"/>
  <path fill="url(#k)" d="M21.3 15.022a9.78 9.78 0 0 1-3.552 4.89L12 12z" transform="scale(2.667)"/>
</svg>
