<svg xmlns="http://www.w3.org/2000/svg" viewBox="0 0 64 64">
  <path fill="#ff8b00" d="M0 0h64v64H0z"/>
  <path fill="#fffffa" d="m29.99 13.453 1.856-6.298 4.224 1.242-1.612 5.862 3.52.807L39.59 9.28l4.096 1.024-1.69 6.157a45.4 45.4 0 0 1 7.617 4.032l-3.52 4.032s-7.399-4.762-15.155-5.056c-5.159-.192-5.748 4.147-.308 6.963 2.381 1.229 13.556 6.003 15.245 12.224s-4.544 8.998-7.705 9.37c-2.496.294-4.647.307-4.647.307l-1.677 6.579-4.198-1.242 1.754-6.08-3.584-.806-1.613 5.696-4.173-1.1 1.69-5.863c-3.75-1.421-6.861-3.085-9.37-4.98l3.584-4.326s8.794 6.157 15.45 6.157 7.539-4.096 3.443-6.733-15.603-7.321-16.768-13.619 5.491-9.011 11.93-8.563"/>
</svg>
