<svg xmlns="http://www.w3.org/2000/svg" viewBox="0 0 64 64">
  <circle cx="32" cy="32" r="32" fill="#3cb054"/>
  <path fill="#fff" fill-rule="evenodd" d="M36.347 48.985c-.57.048-1.022.06-1.298.06-9.016.018-16.337-7.32-16.337-16.337q0-.109.002-.217v-.23h-.002V14.944h.002c5.471-.086 18.972 1.106 26.418 11.463a16.26 16.26 0 0 1 3.064 9.521c0 2.132-.41 4.169-1.154 6.036l-.005-.004c-.477 1.266-1.747 3.874-5.06 5.535a13 13 0 0 1-1.617.672c2.378-9.102-.73-22.29-14.54-28.628 8.387 5.2 15.012 18.29 10.527 29.446"/>
</svg>
