<svg xmlns="http://www.w3.org/2000/svg" viewBox="0 0 64 64">
  <circle cx="32" cy="32" r="31.111" fill="url(#a)" stroke="url(#b)" stroke-width="1.27"/>
  <g clip-path="url(#c)" transform="scale(.30476)">
    <path fill="url(#d)" d="m173.936 112.721-5.289-20.616a1.71 1.71 0 0 0-1.246-1.23L146.97 85.84a2.3 2.3 0 0 0-.472-.05 1.67 1.67 0 0 0-1.364.471l-34.478 34.479-4.565-17.821a1.71 1.71 0 0 0-1.246-1.229l-17.551-4.33 34.461-34.46c.203-.203.321-.455.405-.708.151-.337.202-.724.101-1.095l-5.289-20.616a1.71 1.71 0 0 0-1.246-1.23l-20.431-5.035a1.72 1.72 0 0 0-1.163.134h-.016c-.102.05-.186.118-.287.186-.084.067-.202.1-.27.185L34.744 93.503s-.101.168-.168.253a1.66 1.66 0 0 0-.337 1.566l5.71 19.926c.168.572.606 1.01 1.162 1.162l19.134 5.491 5.49 19.117c.17.573.607 1.01 1.163 1.162l19.201 5.508 5.508 19.201a1.68 1.68 0 0 0 1.162 1.163l20.01 5.743c.152.05.32.068.471.068.034 0 .068-.018.119-.018h.033a1.7 1.7 0 0 0 1.213-.505l58.833-58.834c.202-.202.321-.454.405-.707.152-.337.202-.724.101-1.095zm-26.377 22.856-4.295-16.758 9.517-9.5 16.355 4.699-21.56 21.576zm-33.366 33.367-4.295-16.759 17.214-17.214 16.354 4.7zm13.272-39.144-4.109-14.317 14.771 3.639-10.662 10.662zm13.003-8.186 3.773 14.705-14.367-4.127 10.594-10.594zm.489-5.305-16.742-4.127 21.509-21.509 4.648 16.22zm-20.903.016 4.649 16.221-17.13 17.129-16.742-4.126zm45.545-22.418 4.295 16.759-16.237-4.665-4.649-16.187zm-77.294 49.149-4.296-16.759 6.199-6.199 16.355 4.7zm2.257-28.128-4.11-14.317 14.771 3.638-10.661 10.662zm16.776 6.535-14.368-4.127 10.595-10.594 3.773 14.704zm-19.522-3.773-6.114 6.114-16.742-4.126 18.207-18.208zM68.547 64.516l4.65 16.22-17.282 17.281-16.742-4.127zm25.518-25.518 4.649 16.22-9.264 9.264-16.742-4.127zm1.987 44.753-4.294-16.743 9.364-9.364 16.355 4.682zm-20.094-5.76-4.11-14.318 14.772 3.638-10.662 10.662zm13.004-8.187 3.772 14.704-14.35-4.126 10.594-10.595zm-13.34 13.34 16.355 4.683-29.426 29.425-4.295-16.742zm38.318-40.878 4.295 16.759-16.237-4.666-4.648-16.186zM38.33 97.208l14.772 3.639-10.662 10.662-4.11-14.317zm6.519 16.726 10.594-10.595 3.773 14.705-14.35-4.127zm23.9 25.248-4.648-16.186 16.59 4.093 4.296 16.759zm21.24 9.685 14.772 3.638-10.662 10.662-4.11-14.317zm6.518 16.725 10.595-10.594 3.773 14.704-14.368-4.127z"/>
    <path fill="#fff" fill-opacity=".2" d="m173.936 112.721-5.289-20.616a1.71 1.71 0 0 0-1.246-1.23L146.97 85.84a2.3 2.3 0 0 0-.472-.05 1.67 1.67 0 0 0-1.364.471l-34.478 34.479-4.565-17.821a1.71 1.71 0 0 0-1.246-1.229l-17.551-4.33 34.461-34.46c.203-.203.321-.455.405-.708.151-.337.202-.724.101-1.095l-5.289-20.616a1.71 1.71 0 0 0-1.246-1.23l-20.431-5.035a1.72 1.72 0 0 0-1.163.134h-.016c-.102.05-.186.118-.287.186-.084.067-.202.1-.27.185L34.744 93.503s-.101.168-.168.253a1.66 1.66 0 0 0-.337 1.566l5.71 19.926c.168.572.606 1.01 1.162 1.162l19.134 5.491 5.49 19.117c.17.573.607 1.01 1.163 1.162l19.201 5.508 5.508 19.201a1.68 1.68 0 0 0 1.162 1.163l20.01 5.743c.152.05.32.068.471.068.034 0 .068-.018.119-.018h.033a1.7 1.7 0 0 0 1.213-.505l58.833-58.834c.202-.202.321-.454.405-.707.152-.337.202-.724.101-1.095zm-26.377 22.856-4.295-16.758 9.517-9.5 16.355 4.699-21.56 21.576zm-33.366 33.367-4.295-16.759 17.214-17.214 16.354 4.7zm13.272-39.144-4.109-14.317 14.771 3.639-10.662 10.662zm13.003-8.186 3.773 14.705-14.367-4.127 10.594-10.594zm.489-5.305-16.742-4.127 21.509-21.509 4.648 16.22zm-20.903.016 4.649 16.221-17.13 17.129-16.742-4.126zm45.545-22.418 4.295 16.759-16.237-4.665-4.649-16.187zm-77.294 49.149-4.296-16.759 6.199-6.199 16.355 4.7zm2.257-28.128-4.11-14.317 14.771 3.638-10.661 10.662zm16.776 6.535-14.368-4.127 10.595-10.594 3.773 14.704zm-19.522-3.773-6.114 6.114-16.742-4.126 18.207-18.208zM68.547 64.516l4.65 16.22-17.282 17.281-16.742-4.127zm25.518-25.518 4.649 16.22-9.264 9.264-16.742-4.127zm1.987 44.753-4.294-16.743 9.364-9.364 16.355 4.682zm-20.094-5.76-4.11-14.318 14.772 3.638-10.662 10.662zm13.004-8.187 3.772 14.704-14.35-4.126 10.594-10.595zm-13.34 13.34 16.355 4.683-29.426 29.425-4.295-16.742zm38.318-40.878 4.295 16.759-16.237-4.666-4.648-16.186zM38.33 97.208l14.772 3.639-10.662 10.662-4.11-14.317zm6.519 16.726 10.594-10.595 3.773 14.705-14.35-4.127zm23.9 25.248-4.648-16.186 16.59 4.093 4.296 16.759zm21.24 9.685 14.772 3.638-10.662 10.662-4.11-14.317zm6.518 16.725 10.595-10.594 3.773 14.704-14.368-4.127z"/>
  </g>
  <defs transform="scale(.30476)">
    <linearGradient id="a" x1="131.597" x2="78.925" y1="-5.009" y2="209.579" gradientUnits="userSpaceOnUse">
      <stop stop-color="#302a92"/>
      <stop offset="1" stop-color="#151160"/>
    </linearGradient>
    <linearGradient id="b" x1="18.858" x2="192.079" y1="136.395" y2="73.402" gradientUnits="userSpaceOnUse">
      <stop stop-color="#29bcfa"/>
      <stop offset=".43" stop-color="#6464e4"/>
      <stop offset="1" stop-color="#b45afa"/>
    </linearGradient>
    <linearGradient id="d" x1="43.855" x2="164.942" y1="125.943" y2="81.864" gradientUnits="userSpaceOnUse">
      <stop stop-color="#29bcfa"/>
      <stop offset=".43" stop-color="#6464e4"/>
      <stop offset="1" stop-color="#b45afa"/>
    </linearGradient>
    <clipPath id="c">
      <path fill="#fff" d="M34.166 34.167h141.667v141.667H34.166z"/>
    </clipPath>
  </defs>
</svg>
